<?xml version="1.0" encoding="UTF-8" standalone="no"?>
<svg
   xmlns:dc="http://purl.org/dc/elements/1.1/"
   xmlns:cc="http://creativecommons.org/ns#"
   xmlns:rdf="http://www.w3.org/1999/02/22-rdf-syntax-ns#"
   xmlns:svg="http://www.w3.org/2000/svg"
   xmlns="http://www.w3.org/2000/svg"
   xmlns:sodipodi="http://sodipodi.sourceforge.net/DTD/sodipodi-0.dtd"
   xmlns:inkscape="http://www.inkscape.org/namespaces/inkscape"
   version="1.1"
   id="svg5174"
   viewBox="0 0 426.94923 477.6211"
   height="134.79529mm"
   width="120.49456mm"
   inkscape:version="0.91 r13725"
   sodipodi:docname="drawing.svg">
  <sodipodi:namedview
     pagecolor="#ffffff"
     bordercolor="#666666"
     borderopacity="1"
     objecttolerance="10"
     gridtolerance="10"
     guidetolerance="10"
     inkscape:pageopacity="0"
     inkscape:pageshadow="2"
     inkscape:window-width="1916"
     inkscape:window-height="1071"
     id="namedview4142"
     showgrid="false"
     inkscape:zoom="1.3783247"
     inkscape:cx="113.51837"
     inkscape:cy="222.86568"
     inkscape:window-x="1920"
     inkscape:window-y="108"
     inkscape:window-maximized="0"
     inkscape:current-layer="svg5174"
     fit-margin-top="0"
     fit-margin-left="0"
     fit-margin-right="0"
     fit-margin-bottom="0" />
  <defs
     id="defs5176" />
  <metadata
     id="metadata5179">
    <rdf:RDF>
      <cc:Work
         rdf:about="">
        <dc:format>image/svg+xml</dc:format>
        <dc:type
           rdf:resource="http://purl.org/dc/dcmitype/StillImage" />
        <dc:title></dc:title>
      </cc:Work>
    </rdf:RDF>
  </metadata>
  <path
     style="color:#000000;font-style:normal;font-variant:normal;font-weight:normal;font-stretch:normal;font-size:medium;line-height:normal;font-family:sans-serif;text-indent:0;text-align:start;text-decoration:none;text-decoration-line:none;text-decoration-style:solid;text-decoration-color:#000000;letter-spacing:normal;word-spacing:normal;text-transform:none;direction:ltr;block-progression:tb;writing-mode:lr-tb;baseline-shift:baseline;text-anchor:start;white-space:normal;clip-rule:nonzero;display:inline;overflow:visible;visibility:visible;opacity:1;isolation:auto;mix-blend-mode:normal;color-interpolation:sRGB;color-interpolation-filters:linearRGB;solid-color:#000000;solid-opacity:1;fill:#000000;fill-opacity:1;fill-rule:evenodd;stroke:none;stroke-width:10.71444511;stroke-linecap:butt;stroke-linejoin:miter;stroke-miterlimit:4;stroke-dasharray:none;stroke-dashoffset:0;stroke-opacity:1;color-rendering:auto;image-rendering:auto;shape-rendering:auto;text-rendering:auto;enable-background:accumulate"
     d="M 0,-1.5258789e-5 28.867191,114.95702 l 50.177735,24.97851 -7.033204,49.35547 34.894528,54.12109 32.7793,16.31641 24.17578,135.52343 -21.14844,27.34375 39.55079,54.17188 133.43359,0.85351 81.51562,-36.67382 13.95313,-93.38477 L 307.21875,249.7949 320.04297,243.41209 354.9375,189.291 347.90235,139.93553 398.08203,114.95702 426.94922,-1.5258789e-5 285.69336,56.251939 279.54688,106.20506 216.01172,80.90233 213.46289,79.156236 210.93164,80.904283 151.2168,104.68553 140.97657,56.140611 53.673832,21.374986 l -0.148438,-0.132812 -0.01953,0.06641 -0.226562,-0.0918 -0.259766,-0.230469 -0.03125,0.115235 L 0,-1.5258789e-5 Z M 15.49414,17.701158 50.099613,31.482408 33.728519,90.322252 15.49414,17.701158 Z m 395.96289,0 -18.59179,74.042969 -18.92188,-59.103516 37.51367,-14.939453 z M 59.117191,40.728502 137.30469,110.15819 85.136722,130.99803 39.833988,108.44725 59.117191,40.728502 Z m 293.269529,0.498047 -61.20898,58.177734 4.375,-35.544922 56.83398,-22.632812 z M 77.125004,42.24608 131.67774,63.970689 138.64649,96.999986 77.125004,42.24608 Z m 288.902346,1.146484 20.94922,65.124996 -45.15039,22.47461 -47.9375,-19.35742 72.13867,-68.242186 z m -152.54297,48.767579 57.55859,39.443357 -115.53515,0.57617 57.97656,-40.019527 z m -42.04297,16.001957 -39.85352,27.51171 -0.45703,-0.11523 -22.70898,90.43164 -25.240236,-39.14648 6.578125,-46.15235 81.681641,-32.52929 z m 84.74414,0.27148 81.00391,32.25781 6.57812,46.15235 -25.24023,39.14843 -22.70899,-90.43359 -0.24609,0.0625 0.0742,-0.14648 -5.04883,-3.45899 -0.002,-0.50976 -0.73438,0.004 -33.67578,-23.07618 z m 23.99414,33.83984 -64.81445,127.64648 -3.10938,0 -65.28711,-126.98241 133.21094,-0.66407 z m 8.17774,7.5586 21.73632,86.5664 -80.83789,40.23828 -3.17187,-4.1582 62.27344,-122.64648 z m -149.80664,0.16992 62.77343,122.08789 -3.34179,4.68945 -81.12696,-40.38281 21.69532,-86.39453 z m 18.07421,70.12695 c -3.09118,-1e-5 -5.97579,0.77364 -8.41796,2.39453 -2.44218,1.62089 -4.65424,4.48893 -4.6543,8.08398 6e-5,3.59505 2.21212,6.46309 4.6543,8.08399 2.44217,1.62089 5.32678,2.39258 8.41796,2.39258 3.09117,-1e-5 5.97386,-0.77169 8.41602,-2.39258 2.44216,-1.6209 4.65423,-4.48896 4.6543,-8.08399 -7e-5,-3.59502 -2.21214,-6.46309 -4.6543,-8.08398 -2.44216,-1.6209 -5.32485,-2.39452 -8.41602,-2.39453 z m 114.28125,0.13867 c -3.09118,1e-5 -5.9758,0.77167 -8.41796,2.39258 -2.44217,1.62091 -4.65428,4.49089 -4.6543,8.08593 7e-5,3.59503 2.21213,6.4631 4.6543,8.08399 2.44216,1.62089 5.3268,2.39257 8.41796,2.39258 3.0912,10e-6 5.97579,-0.77169 8.41797,-2.39258 2.44219,-1.62089 4.65423,-4.48893 4.6543,-8.08399 -2e-5,-3.59507 -2.2121,-6.46502 -4.6543,-8.08593 -2.44219,-1.62091 -5.32675,-2.3926 -8.41797,-2.39258 z m 26.16797,34.69336 79.15039,74.44531 -113.93945,-56.9707 34.78906,-17.47461 z m -145.33008,11.35742 60.91993,31.04297 30.20703,-15.17383 -70.15235,101.70508 -20.97461,-117.57422 z m 104.64063,15.14844 131.05273,65.52344 -204.52343,40.99023 73.4707,-106.51367 z m 142.75195,74.10351 -11.65625,78.00586 -74.04883,33.31641 -76.98632,-0.49219 -22.91993,-73.62695 185.61133,-37.20313 z m -196.17578,39.32032 22.24024,71.4375 -37.46875,-0.24024 -31.61719,-43.30664 16.93555,-21.89648 29.91015,-5.99414 z"
     id="path4276"
     inkscape:connector-curvature="0" />
</svg>
