<?xml version="1.0" encoding="UTF-8" standalone="no"?>
<svg
   xmlns:dc="http://purl.org/dc/elements/1.1/"
   xmlns:cc="http://creativecommons.org/ns#"
   xmlns:rdf="http://www.w3.org/1999/02/22-rdf-syntax-ns#"
   xmlns:svg="http://www.w3.org/2000/svg"
   xmlns="http://www.w3.org/2000/svg"
   xmlns:sodipodi="http://sodipodi.sourceforge.net/DTD/sodipodi-0.dtd"
   xmlns:inkscape="http://www.inkscape.org/namespaces/inkscape"
   id="Layer_1"
   xml:space="preserve"
   viewBox="368 0 131.30928 91.791611"
   version="1.1"
   y="0px"
   x="0px"
   enable-background="new 368 0 295 250"
   inkscape:version="0.91 r13725"
   sodipodi:docname="fennec.svg"
   width="131.30928"
   height="91.791611"><metadata
     id="metadata101"><rdf:RDF><cc:Work
         rdf:about=""><dc:format>image/svg+xml</dc:format><dc:type
           rdf:resource="http://purl.org/dc/dcmitype/StillImage" /><dc:title></dc:title></cc:Work></rdf:RDF></metadata><defs
     id="defs99" /><sodipodi:namedview
     pagecolor="#ffffff"
     bordercolor="#666666"
     borderopacity="1"
     objecttolerance="10"
     gridtolerance="10"
     guidetolerance="10"
     inkscape:pageopacity="0"
     inkscape:pageshadow="2"
     inkscape:window-width="1276"
     inkscape:window-height="985"
     id="namedview97"
     showgrid="false"
     inkscape:zoom="2.6700352"
     inkscape:cx="55.541877"
     inkscape:cy="53.371098"
     inkscape:window-x="3840"
     inkscape:window-y="18"
     inkscape:window-maximized="0"
     inkscape:current-layer="layer1"
     fit-margin-top="0"
     fit-margin-left="0"
     fit-margin-right="0"
     fit-margin-bottom="0" /><g
     inkscape:groupmode="layer"
     id="layer1"
     inkscape:label="Layer 1"
     style="display:inline"
     transform="translate(-135.48797,-115.45478)"><g
       transform="translate(5.3972517,-8.2664199)"
       id="head_x5F_2"><g
         id="filling_1_"><path
           style="fill:#fceed8"
           inkscape:connector-curvature="0"
           d="m 626.5,139.3 c -0.9,4.2 -1.9,8.4 -3,12.6 -1.7,6.3 -4.3,12.1 -8.4,17.2 -3.8,4.8 -7.8,9.6 -11.6,14.3 -0.3,0.4 -0.7,0.8 -1,1.2 -0.2,0.4 -0.3,0.8 -0.5,1.2 -0.4,0.9 -1,1.6 -1.6,2.4 -0.3,0.4 -0.5,0.7 -0.9,1 -0.7,0.7 -1.2,1.5 -1.6,2.4 -0.2,0.3 -0.3,0.7 -0.4,1 -0.9,2 -1.3,4.4 -2.4,6.2 -1.1,1.9 -3.2,3.4 -4.9,4.7 -3.4,2.8 -6.9,5.6 -11,7.1 -1.4,0.6 -2.8,0.9 -4.2,1.3 -3.8,1.1 -7.8,1.8 -11.8,1 -3.8,-0.8 -7.2,-2.5 -10.8,-3.8 -1.1,-0.4 -2.2,-0.8 -3.2,-1.4 -0.8,-0.4 -1.4,-0.9 -2.1,-1.5 -1.9,-1.5 -3.9,-3 -5.6,-4.7 -0.9,-0.9 -1.7,-1.8 -2.5,-2.7 -0.6,-0.7 -1.4,-1.3 -1.9,-2.1 -1.4,-2.2 -2.6,-4.7 -3.6,-7.1 -0.5,-1.1 -0.9,-2.3 -1.3,-3.5 -0.3,-1 -0.8,-1.9 -1,-3 -0.1,-0.8 -0.1,-1.5 -0.3,-2.3 -0.2,-0.6 -1.3,-1.8 -2,-1.8 -1.5,-0.9 -3,-1.7 -4.4,-2.8 -5.8,-4.3 -10.2,-9.7 -13.8,-15.9 -1.7,-2.9 -3.5,-5.9 -5.6,-8.6 -4.3,-5.5 -5.8,-11.9 -6,-18.6 -0.1,-2.6 0.7,-4.9 2.3,-7 0.9,-1.2 1.9,-1.6 3.3,-1.2 6.4,1.7 12.8,3.4 18.5,6.6 1.8,1 3.7,2.1 5.4,3.2 1.8,1.1 3.5,2.3 5.2,3.5 1.7,1.3 3.3,2.6 4.9,3.9 1.6,1.3 3.1,2.9 4.5,4.4 0.7,0.8 1.4,1.6 2,2.4 0.3,0.4 0.7,0.8 1,1.2 0.2,0.2 0.3,0.4 0.5,0.6 0.3,0.4 0.7,0.8 1,1.1 0.4,0.5 0.8,1.1 1.2,1.6 0.4,0.6 0.8,1.1 1.3,1.6 0.1,0.1 0.2,0.3 0.3,0.4 0.2,0.3 0.5,0.6 0.9,0.6 0.5,0 1.1,-0.1 1.6,-0.1 1.1,-0.1 2.2,-0.2 3.2,-0.5 6.1,-1.8 12.2,-2 18.4,-0.6 0.5,0.1 1.2,0.3 1.7,0.2 0.6,-0.1 1.3,-0.1 1.9,-0.4 0.4,-0.1 0.8,-0.2 1.1,-0.4 0.3,-0.2 0.5,-0.2 0.8,-0.3 1,-0.4 1.8,-1.1 2.6,-1.7 0.7,-0.6 1.3,-1.3 1.9,-2 0.5,-0.5 0.9,-1 1.4,-1.4 4.6,-4.4 9.8,-8.1 15.3,-11.4 7,-4.2 14.3,-7.6 22,-10.3 1.8,-0.6 2.2,-0.4 2.6,1.5 1.1,3.9 1.4,7.3 0.6,10.7 z"
           id="path5" /></g><g
         id="spots_1_"><path
           style="fill:#f2c990"
           inkscape:connector-curvature="0"
           d="m 538,184.3 c 0.3,-1.3 2.8,-1.3 3.8,-1.7 0.3,-0.1 0.6,-0.3 1,-0.3 0.4,0 1,0.1 1.2,0.3 0.2,0.3 0.1,0.9 -0.2,1.2 -0.4,0.5 -0.9,0.9 -1.4,1.2 -0.4,0.3 -0.6,0.5 -0.4,1 0.2,0.5 0.4,1.1 0.4,1.6 0.1,0.9 -0.6,1.5 -1.4,0.9 -0.7,-0.4 -1.1,-1.1 -1.7,-1.8 -0.8,-0.6 -1.5,-1.3 -1.3,-2.4 -0.1,0.1 -0.1,0.1 0,0 z"
           id="path8" /><path
           style="fill:#f2c88f"
           inkscape:connector-curvature="0"
           d="m 548.4,158.5 c 0,0.6 0.7,0.6 1.3,0.8 1.2,0.4 2.1,1.3 3.2,1.9 1.4,0.9 2.9,1.6 4.4,2.1 1.9,0.6 3.5,1.9 4.4,3.8 0.3,0.6 0.5,1.1 0.9,1.6 1,1.2 1.2,2.8 1.6,4.3 0.6,2.3 0.6,4.5 0.7,6.8 0,0.6 0.1,1.1 0.1,1.6 0.1,1.4 0.7,2.5 2.2,2.6 1.5,0.1 2.3,-1.3 2.5,-2.5 0.1,-0.6 0.2,-1.3 0.3,-1.9 0.1,-1.2 0,-2.4 0.1,-3.5 0.1,-1.1 0.4,-2.3 0.6,-3.4 0.4,-2.4 2.1,-4.3 3.4,-6.2 0.5,-0.7 1.2,-1.4 1.9,-1.9 1.3,-1.1 2.7,-2.1 3.9,-3.4 0.8,-0.8 1.5,-1.6 2,-2.6 0.4,-0.8 0.6,-1.1 1.5,-1.1 0.7,-0.1 7.5,-11.8 10.9,-14.6 0.2,-0.1 0.3,-0.3 0.4,-0.4 -2.9,2.1 -5.7,4.3 -8.3,6.8 -0.5,0.4 -1,0.9 -1.4,1.4 -0.6,0.7 -1.1,1.4 -1.9,2 -0.8,0.6 -1.6,1.3 -2.6,1.7 -0.3,0.1 -0.5,0.1 -0.8,0.3 -0.3,0.2 -0.8,0.3 -1.1,0.4 -0.6,0.2 -1.3,0.2 -1.9,0.4 -0.5,0.1 -1.2,-0.1 -1.7,-0.2 -6.2,-1.4 -12.3,-1.3 -18.4,0.6 -1,0.3 -2.1,0.4 -3.2,0.5 -0.5,0.1 -1.1,0.1 -1.6,0.1 -0.4,0 -0.8,-0.3 -0.9,-0.6 -0.1,-0.1 -0.2,-0.3 -0.3,-0.4 -0.4,-0.6 -0.8,-1.1 -1.3,-1.6 -0.4,-0.5 -0.7,-1.1 -1.2,-1.6 -0.3,-0.4 -0.7,-0.7 -1,-1.1 -0.1,-0.2 -0.3,-0.4 -0.5,-0.6 -0.3,-0.4 -0.6,-0.8 -1,-1.2 -0.7,-0.8 -1.3,-1.6 -2,-2.4 -1.4,-1.5 -3,-3 -4.5,-4.4 0,0.1 0.1,0.2 0.2,0.3 2.6,3.1 9,14.7 9.1,15.6 z"
           id="path10" /><path
           style="fill:#f2c990"
           inkscape:connector-curvature="0"
           d="m 555.5,192.8 c 0.1,0 0.3,0 0.5,0.1 0.7,0.3 0.6,1.1 0.3,1.6 -0.5,0.8 -1.1,1.6 -1.5,2.4 -0.3,0.7 -0.6,1.6 -0.8,2.4 -0.1,0.5 0,1.1 0,1.6 0,1.1 -0.8,2 -1.6,1.9 -0.9,0 -1.8,-1 -1.8,-2 0,-2.9 1.3,-5.2 3.4,-7.1 0.3,-0.4 0.9,-0.9 1.5,-0.9 z"
           id="path12" /><path
           style="fill:#f2c990"
           inkscape:connector-curvature="0"
           d="m 578.7,193.3 c 0.7,-0.1 1.8,0.6 2.2,0.9 1.5,1.2 2.7,2.6 3.2,4.5 0.4,1.6 -0.8,3.5 -2.5,3.6 -0.6,0.1 -1.1,-0.6 -1,-1.3 0.6,-2 -0.2,-3.5 -1.6,-4.8 -0.3,-0.3 -0.7,-0.6 -0.8,-1 -0.2,-0.4 -0.2,-1 -0.1,-1.4 0.1,-0.3 0.3,-0.5 0.6,-0.5 z"
           id="path14" /><path
           style="fill:#f2c990"
           inkscape:connector-curvature="0"
           d="m 590.6,180.6 c 0.9,0.1 1.8,0.3 2.8,0.4 0.7,0.1 0.7,0.7 0.5,1.1 -0.6,1.2 -0.9,2.7 -2.2,3.4 -0.4,0.2 -0.9,0.2 -1.4,0.3 0,-0.5 -0.2,-1.1 0,-1.6 0.5,-1.3 0.6,-1.1 -0.7,-1.8 -0.5,-0.2 -1.1,-0.9 -1,-1.3 0,-0.7 0.8,-0.8 1.5,-0.7 0.1,0.2 0.3,0.2 0.5,0.2 z"
           id="path16" /></g><g
         style="fill:#f5bab3"
         id="ears_filling"><path
           inkscape:connector-curvature="0"
           d="m 534.2,171 c 0.7,-1 0.7,-2.4 1.4,-3.4 1,-1.6 2.5,-2.6 4,-3.7 0.3,-0.3 3.4,-2.3 3.3,-2.8 -1.2,-3.6 -4.9,-6.5 -7.4,-9.1 -3.2,-3.1 -6.7,-6.9 -10.7,-8.9 -3.6,-1.9 -7.4,-3.3 -11.2,-4.7 -3.5,-1.3 -1.6,3.4 -1.1,4.8 0.8,2.4 1.7,4.9 2.8,7.3 2.3,4.7 5.5,8.9 8.9,12.7 1.2,1.3 8.3,10.2 10,8.1 l 0,-0.3 z"
           id="path28" /><path
           inkscape:connector-curvature="0"
           d="m 592,162.8 c 0.5,0.4 1.1,0.9 1.5,1.3 0.5,0.6 6,8.9 5.9,8.9 3.6,-1.3 6.6,-3.9 9,-7 2.3,-3.1 3.9,-6.6 5.3,-10.2 1.1,-2.9 2.2,-5.9 3.1,-9 0.5,-1.5 0.7,-3.4 -0.5,-4.3 -0.9,-0.7 -2.2,-0.4 -3.3,-0.1 -4.9,1.5 -9.3,4.4 -13.1,7.8 -2,1.8 -3.8,3.7 -5.5,5.6 -1.9,2 -5.3,4.5 -2.4,7 z"
           id="path30" /></g></g></g><g
     inkscape:groupmode="layer"
     id="layer3"
     inkscape:label="Layer 2"
     style="display:inline"
     transform="translate(-135.48797,-115.45478)"><g
       transform="translate(5.3972496,-8.2664163)"
       style="display:inline"
       id="silhouette_1_"><path
         inkscape:connector-curvature="0"
         d="m 627.9,128.4 c -0.3,-1 -1.1,-1.9 -1.6,-2.8 -0.3,-0.1 -0.5,-0.1 -0.8,-0.2 -0.1,0.1 -0.2,0.2 -0.3,0.2 -14.4,4.2 -27,11.5 -38.4,21.3 -0.1,0.1 -0.2,0.1 -0.3,0.2 -0.9,0.9 -1.9,1.8 -2.8,2.7 -0.5,0.5 -0.7,1.1 -1.1,1.6 -0.4,0.5 -1,0.9 -1.5,1.2 -0.6,0.4 -1.3,0.8 -2,1.1 -1.2,0.4 -2,-0.1 -3.1,-0.3 -0.8,-0.2 -1.6,-0.3 -2.4,-0.6 -3.2,-1 -6.4,-1.4 -9.7,-0.8 -1.9,0.4 -3.7,0.9 -5.6,1.4 -1.6,0.4 -3.3,1.2 -5,1.4 -1.6,0.3 -3.2,-2.1 -4.1,-3.1 -1.3,-1.5 -2.4,-3.1 -3.7,-4.5 -1.3,-1.4 -2.5,-2.8 -3.9,-4.1 -0.2,-0.2 -0.4,-0.5 -0.7,-0.6 -1.9,-1.3 -3.5,-3.1 -5.3,-4.6 -1.9,-1.5 -3.8,-2.9 -5.8,-4.2 -3.4,-2.2 -7.1,-4.1 -10.9,-5.7 -3.8,-1.6 -7.7,-3 -11.7,-3.8 -0.4,-0.1 -0.9,-0.1 -1.2,-0.2 -2.3,-0.8 -4,0.2 -5.4,2 -1.9,2.4 -2.6,5.2 -2.5,8 0.3,6.7 1.6,13 5.8,18.5 1.6,2.2 3.1,4.5 4.6,6.8 2.4,3.6 4.7,7.5 7.4,10.9 1.9,2.4 4.1,4.7 6.5,6.6 1.3,1 2.6,1.9 3.9,2.7 0.8,0.5 1.9,0.9 2.4,1.7 0.6,1.1 1,2.4 1.5,3.5 1.7,4.1 2.9,8.4 5.4,12.1 0.7,1.1 1.5,2.1 2.4,3.1 1.1,1.3 2.5,2.1 3.6,3.4 1.3,1.4 2.6,2.7 4.2,3.8 1.4,1 3,1.7 4.6,2.5 3.4,1.6 6.8,3.2 10.3,4.4 1,0.4 2,0.6 3,0.9 1.1,0.3 2,0.6 3.2,0.6 2.1,0.1 3.9,-0.4 5.8,-1 2,-0.7 4.1,-1.1 6.1,-1.9 1.8,-0.6 3.6,-1.1 5.2,-2.1 4.1,-2.7 8.2,-5.6 11.7,-9.1 2.1,-2.1 2.5,-5.1 3.9,-7.6 0.7,-1.3 1.1,-2.8 1.8,-4.1 0.7,-1.3 1.6,-2.4 2.8,-3.4 0.4,-0.3 0.7,-0.6 1.1,-0.8 0.6,-0.5 1.1,-1.2 1.7,-1.9 0.6,-0.7 1.2,-1.4 1.8,-2.2 0.6,-0.7 1.1,-1.4 1.7,-2.1 1.5,-1.9 3.1,-3.8 4.7,-5.6 8.8,-10.3 12.4,-22.7 14.2,-35.8 -0.1,-3.2 -0.6,-6.4 -1.5,-9.5 z m -1.4,10.9 c -0.9,4.2 -1.9,8.4 -3,12.6 -1.7,6.3 -4.3,12.1 -8.4,17.2 -3.8,4.8 -7.8,9.6 -11.6,14.3 -0.3,0.4 -0.7,0.8 -1,1.2 -0.2,0.4 -0.3,0.8 -0.5,1.2 -0.4,0.9 -1,1.6 -1.6,2.4 -0.3,0.4 -0.5,0.7 -0.9,1 -0.7,0.7 -1.2,1.5 -1.6,2.4 -0.2,0.3 -0.3,0.7 -0.4,1 -0.9,2 -1.3,4.4 -2.4,6.2 -1.1,1.9 -3.2,3.4 -4.9,4.7 -3.4,2.8 -6.9,5.6 -11,7.1 -1.4,0.6 -2.8,0.9 -4.2,1.3 -3.8,1.1 -7.8,1.8 -11.8,1 -3.8,-0.8 -7.2,-2.5 -10.8,-3.8 -1.1,-0.4 -2.2,-0.8 -3.2,-1.4 -0.8,-0.4 -1.4,-0.9 -2.1,-1.5 -1.9,-1.5 -3.9,-3 -5.6,-4.7 -0.9,-0.9 -1.7,-1.8 -2.5,-2.7 -0.6,-0.7 -1.4,-1.3 -1.9,-2.1 -1.4,-2.2 -2.6,-4.7 -3.6,-7.1 -0.5,-1.1 -0.9,-2.3 -1.3,-3.5 -0.3,-1 -0.8,-1.9 -1,-3 -0.1,-0.8 -0.1,-1.5 -0.3,-2.3 -0.2,-0.6 -1.3,-1.8 -2,-1.8 -1.5,-0.9 -3,-1.7 -4.4,-2.8 -5.8,-4.3 -10.2,-9.7 -13.8,-15.9 -1.7,-2.9 -3.5,-5.9 -5.6,-8.6 -4.3,-5.5 -5.8,-11.9 -6,-18.6 -0.1,-2.6 0.7,-4.9 2.3,-7 0.9,-1.2 1.9,-1.6 3.3,-1.2 6.4,1.7 12.8,3.4 18.5,6.6 1.8,1 3.7,2.1 5.4,3.2 1.8,1.1 3.5,2.3 5.2,3.5 1.7,1.3 3.3,2.6 4.9,3.9 1.6,1.3 3.1,2.9 4.5,4.4 0.7,0.8 1.4,1.6 2,2.4 0.3,0.4 0.7,0.8 1,1.2 0.2,0.2 0.3,0.4 0.5,0.6 0.3,0.4 0.7,0.8 1,1.1 0.4,0.5 0.8,1.1 1.2,1.6 0.4,0.6 0.8,1.1 1.3,1.6 0.1,0.1 0.2,0.3 0.3,0.4 0.2,0.3 0.5,0.6 0.9,0.6 0.5,0 1.1,-0.1 1.6,-0.1 1.1,-0.1 2.2,-0.2 3.2,-0.5 6.1,-1.8 12.2,-2 18.4,-0.6 0.5,0.1 1.2,0.3 1.7,0.2 0.6,-0.1 1.3,-0.1 1.9,-0.4 0.4,-0.1 0.8,-0.2 1.1,-0.4 0.3,-0.2 0.5,-0.2 0.8,-0.3 1,-0.4 1.8,-1.1 2.6,-1.7 0.7,-0.6 1.3,-1.3 1.9,-2 0.5,-0.5 0.9,-1 1.4,-1.4 4.6,-4.4 9.8,-8.1 15.3,-11.4 7,-4.2 14.3,-7.6 22,-10.3 1.8,-0.6 2.2,-0.4 2.6,1.5 1.1,3.9 1.4,7.3 0.6,10.7 z"
         id="path19" /><path
         inkscape:connector-curvature="0"
         d="m 566.8,208.5 c -1.9,-0.1 -3.5,-0.9 -5.3,-1.6 -1.6,-0.6 -3.4,-0.3 -5,-0.9 -1.4,-0.5 -2.4,-1.8 -3.3,-3 -0.9,-1.2 -0.7,-2.6 -0.2,-3.8 0.1,-0.3 0.7,-0.6 1.1,-0.6 0.6,0 0.6,0.5 0.5,1.1 -0.8,3.4 0.6,5.4 4.1,5.7 1.4,0.1 2.8,0.1 4.2,0.1 1.3,0 2.8,0.2 4,-0.7 -0.8,-0.5 -1.5,-1 -2.3,-1.5 -1,-0.7 -1.6,-1.6 -1.3,-2.9 0.5,-1.8 2.6,-3.2 4.7,-3.1 1.6,0.1 2.8,0.8 3.7,2.1 0.8,1.1 0.6,2.3 -0.2,3.3 -0.3,0.4 -2.5,1.6 -2.5,2.1 0.1,1 1.2,0.7 1.9,0.7 1.5,0.1 3.1,-0.1 4.6,-0.6 0.7,-0.2 1.3,-0.6 2,-0.8 1.3,-0.4 3,-1 3.1,-2.5 0,-0.8 -1.2,-2.3 -0.7,-3 0.4,-0.5 1.1,-0.1 1.4,0.3 0.6,0.7 0.4,1.8 0.3,2.6 -0.1,1.6 -1.7,2.6 -3,3.3 -1.7,0.9 -3.7,1.2 -5.4,2 -1.8,0.9 -3.7,1.5 -5.7,1.6 -0.3,0.1 -0.5,0.1 -0.7,0.1 z"
         id="path21" /><path
         inkscape:connector-curvature="0"
         d="m 551.4,189.1 c -0.1,0.3 0,0.6 0.5,0.7 0.4,0.1 1.9,-0.6 1.7,0.4 -0.2,0.6 -1,0.5 -1.5,0.7 -1.2,0.4 -2.4,0.7 -3.7,0.7 -3.8,0.1 -5.4,-0.6 -7.3,-5.3 -0.5,-1.4 -0.3,-1.8 1.1,-2.4 0.4,-0.2 0.9,-0.4 1.3,-0.7 2.9,-2.3 5.9,-1.7 9,0.7 0.8,0.6 1.5,1.5 2.1,2.3 0.2,0.3 0.4,1.1 0,1.3 -0.5,0.1 -1.2,-0.6 -1.5,-0.8 -0.3,-0.2 -0.6,-0.4 -0.9,-0.7 -0.1,-0.1 -0.2,-0.4 -0.3,-0.4 -0.3,0 -0.2,0.5 -0.2,0.7 0.1,0.2 0.2,0.4 0.3,0.7 0.1,0.3 0,0.7 -0.1,1 0,0.2 -0.4,0.7 -0.5,1.1 z"
         id="path23" /><path
         inkscape:connector-curvature="0"
         d="m 587.7,180.9 c 1.2,0.1 2.4,0.5 3.1,1.1 1,0.9 0.3,2.3 -0.2,3.3 -1.5,3 -3.7,4.6 -7,4.9 -0.6,0.1 -2.8,0.2 -3,-0.7 -0.4,-1.1 1.7,-0.9 2.3,-0.9 0.2,0 0.5,-0.1 0.4,-0.3 -0.1,-0.3 -0.2,-0.4 -0.4,-0.5 -0.4,-0.1 -0.9,-0.4 -1.1,-0.8 -0.2,-0.4 -0.3,-0.8 -0.3,-1.2 0,-0.4 0.3,-1.1 -0.4,-1.1 -0.4,-0.1 -0.9,0.5 -1.1,0.8 -0.2,0.3 -0.3,1 -0.8,0.9 -0.5,-0.1 -0.4,-1 -0.3,-1.4 0.6,-2.3 3.8,-4.4 6.5,-4.4 0.8,0.2 1.5,0.2 2.3,0.3 z"
         id="path25" /></g></g></svg>