<?xml version="1.0" encoding="UTF-8" standalone="no"?>
<!DOCTYPE svg  PUBLIC '-//W3C//DTD SVG 1.1//EN'  'http://www.w3.org/Graphics/SVG/1.1/DTD/svg11.dtd'>
<svg id="Layer_1" xmlns="http://www.w3.org/2000/svg" xml:space="preserve" viewBox="368 0 295 250" version="1.1" y="0px" x="0px" xmlns:xlink="http://www.w3.org/1999/xlink" enable-background="new 368 0 295 250">
<g id="head_x5F_2">
	<g id="filling_1_">
		<path d="m626.5 139.3c-0.9 4.2-1.9 8.4-3 12.6-1.7 6.3-4.3 12.1-8.4 17.2-3.8 4.8-7.8 9.6-11.6 14.3-0.3 0.4-0.7 0.8-1 1.2-0.2 0.4-0.3 0.8-0.5 1.2-0.4 0.9-1 1.6-1.6 2.4-0.3 0.4-0.5 0.7-0.9 1-0.7 0.7-1.2 1.5-1.6 2.4-0.2 0.3-0.3 0.7-0.4 1-0.9 2-1.3 4.4-2.4 6.2-1.1 1.9-3.2 3.4-4.9 4.7-3.4 2.8-6.9 5.6-11 7.1-1.4 0.6-2.8 0.9-4.2 1.3-3.8 1.1-7.8 1.8-11.8 1-3.8-0.8-7.2-2.5-10.8-3.8-1.1-0.4-2.2-0.8-3.2-1.4-0.8-0.4-1.4-0.9-2.1-1.5-1.9-1.5-3.9-3-5.6-4.7-0.9-0.9-1.7-1.8-2.5-2.7-0.6-0.7-1.4-1.3-1.9-2.1-1.4-2.2-2.6-4.7-3.6-7.1-0.5-1.1-0.9-2.3-1.3-3.5-0.3-1-0.8-1.9-1-3-0.1-0.8-0.1-1.5-0.3-2.3-0.2-0.6-1.3-1.8-2-1.8-1.5-0.9-3-1.7-4.4-2.8-5.8-4.3-10.2-9.7-13.8-15.9-1.7-2.9-3.5-5.9-5.6-8.6-4.3-5.5-5.8-11.9-6-18.6-0.1-2.6 0.7-4.9 2.3-7 0.9-1.2 1.9-1.6 3.3-1.2 6.4 1.7 12.8 3.4 18.5 6.6 1.8 1 3.7 2.1 5.4 3.2 1.8 1.1 3.5 2.3 5.2 3.5 1.7 1.3 3.3 2.6 4.9 3.9s3.1 2.9 4.5 4.4c0.7 0.8 1.4 1.6 2 2.4 0.3 0.4 0.7 0.8 1 1.2 0.2 0.2 0.3 0.4 0.5 0.6 0.3 0.4 0.7 0.8 1 1.1 0.4 0.5 0.8 1.1 1.2 1.6 0.4 0.6 0.8 1.1 1.3 1.6 0.1 0.1 0.2 0.3 0.3 0.4 0.2 0.3 0.5 0.6 0.9 0.6 0.5 0 1.1-0.1 1.6-0.1 1.1-0.1 2.2-0.2 3.2-0.5 6.1-1.8 12.2-2 18.4-0.6 0.5 0.1 1.2 0.3 1.7 0.2 0.6-0.1 1.3-0.1 1.9-0.4 0.4-0.1 0.8-0.2 1.1-0.4s0.5-0.2 0.8-0.3c1-0.4 1.8-1.1 2.6-1.7 0.7-0.6 1.3-1.3 1.9-2 0.5-0.5 0.9-1 1.4-1.4 4.6-4.4 9.8-8.1 15.3-11.4 7-4.2 14.3-7.6 22-10.3 1.8-0.6 2.2-0.4 2.6 1.5 1.1 3.9 1.4 7.3 0.6 10.7z" fill="#FCEED8"/>
	</g>
	<g id="spots_1_">
			<path d="m538 184.3c0.3-1.3 2.8-1.3 3.8-1.7 0.3-0.1 0.6-0.3 1-0.3s1 0.1 1.2 0.3c0.2 0.3 0.1 0.9-0.2 1.2-0.4 0.5-0.9 0.9-1.4 1.2-0.4 0.3-0.6 0.5-0.4 1s0.4 1.1 0.4 1.6c0.1 0.9-0.6 1.5-1.4 0.9-0.7-0.4-1.1-1.1-1.7-1.8-0.8-0.6-1.5-1.3-1.3-2.4-0.1 0.1-0.1 0.1 0 0z" fill="#F2C990"/>
				<path d="m548.4 158.5c0 0.6 0.7 0.6 1.3 0.8 1.2 0.4 2.1 1.3 3.2 1.9 1.4 0.9 2.9 1.6 4.4 2.1 1.9 0.6 3.5 1.9 4.4 3.8 0.3 0.6 0.5 1.1 0.9 1.6 1 1.2 1.2 2.8 1.6 4.3 0.6 2.3 0.6 4.5 0.7 6.8 0 0.6 0.1 1.1 0.1 1.6 0.1 1.4 0.7 2.5 2.2 2.6s2.3-1.3 2.5-2.5c0.1-0.6 0.2-1.3 0.3-1.9 0.1-1.2 0-2.4 0.1-3.5s0.4-2.3 0.6-3.4c0.4-2.4 2.1-4.3 3.4-6.2 0.5-0.7 1.2-1.4 1.9-1.9 1.3-1.1 2.7-2.1 3.9-3.4 0.8-0.8 1.5-1.6 2-2.6 0.4-0.8 0.6-1.1 1.5-1.1 0.7-0.1 7.5-11.8 10.9-14.6 0.2-0.1 0.3-0.3 0.4-0.4-2.9 2.1-5.7 4.3-8.3 6.8-0.5 0.4-1 0.9-1.4 1.4-0.6 0.7-1.1 1.4-1.9 2s-1.6 1.3-2.6 1.7c-0.3 0.1-0.5 0.1-0.8 0.3s-0.8 0.3-1.1 0.4c-0.6 0.2-1.3 0.2-1.9 0.4-0.5 0.1-1.2-0.1-1.7-0.2-6.2-1.4-12.3-1.3-18.4 0.6-1 0.3-2.1 0.4-3.2 0.5-0.5 0.1-1.1 0.1-1.6 0.1-0.4 0-0.8-0.3-0.9-0.6-0.1-0.1-0.2-0.3-0.3-0.4-0.4-0.6-0.8-1.1-1.3-1.6-0.4-0.5-0.7-1.1-1.2-1.6-0.3-0.4-0.7-0.7-1-1.1-0.1-0.2-0.3-0.4-0.5-0.6-0.3-0.4-0.6-0.8-1-1.2-0.7-0.8-1.3-1.6-2-2.4-1.4-1.5-3-3-4.5-4.4 0 0.1 0.1 0.2 0.2 0.3 2.6 3.1 9 14.7 9.1 15.6z" fill="#F2C88F"/>
			<path d="m555.5 192.8c0.1 0 0.3 0 0.5 0.1 0.7 0.3 0.6 1.1 0.3 1.6-0.5 0.8-1.1 1.6-1.5 2.4-0.3 0.7-0.6 1.6-0.8 2.4-0.1 0.5 0 1.1 0 1.6 0 1.1-0.8 2-1.6 1.9-0.9 0-1.8-1-1.8-2 0-2.9 1.3-5.2 3.4-7.1 0.3-0.4 0.9-0.9 1.5-0.9z" fill="#F2C990"/>
			<path d="m578.7 193.3c0.7-0.1 1.8 0.6 2.2 0.9 1.5 1.2 2.7 2.6 3.2 4.5 0.4 1.6-0.8 3.5-2.5 3.6-0.6 0.1-1.1-0.6-1-1.3 0.6-2-0.2-3.5-1.6-4.8-0.3-0.3-0.7-0.6-0.8-1-0.2-0.4-0.2-1-0.1-1.4 0.1-0.3 0.3-0.5 0.6-0.5z" fill="#F2C990"/>
			<path d="m590.6 180.6c0.9 0.1 1.8 0.3 2.8 0.4 0.7 0.1 0.7 0.7 0.5 1.1-0.6 1.2-0.9 2.7-2.2 3.4-0.4 0.2-0.9 0.2-1.4 0.3 0-0.5-0.2-1.1 0-1.6 0.5-1.3 0.6-1.1-0.7-1.8-0.5-0.2-1.1-0.9-1-1.3 0-0.7 0.8-0.8 1.5-0.7 0.1 0.2 0.3 0.2 0.5 0.2z" fill="#F2C990"/>
	</g>
	<g id="silhouette_1_">
		<path d="m627.9 128.4c-0.3-1-1.1-1.9-1.6-2.8-0.3-0.1-0.5-0.1-0.8-0.2-0.1 0.1-0.2 0.2-0.3 0.2-14.4 4.2-27 11.5-38.4 21.3-0.1 0.1-0.2 0.1-0.3 0.2-0.9 0.9-1.9 1.8-2.8 2.7-0.5 0.5-0.7 1.1-1.1 1.6s-1 0.9-1.5 1.2c-0.6 0.4-1.3 0.8-2 1.1-1.2 0.4-2-0.1-3.1-0.3-0.8-0.2-1.6-0.3-2.4-0.6-3.2-1-6.4-1.4-9.7-0.8-1.9 0.4-3.7 0.9-5.6 1.4-1.6 0.4-3.3 1.2-5 1.4-1.6 0.3-3.2-2.1-4.1-3.1-1.3-1.5-2.4-3.1-3.7-4.5s-2.5-2.8-3.9-4.1c-0.2-0.2-0.4-0.5-0.7-0.6-1.9-1.3-3.5-3.1-5.3-4.6-1.9-1.5-3.8-2.9-5.8-4.2-3.4-2.2-7.1-4.1-10.9-5.7s-7.7-3-11.7-3.8c-0.4-0.1-0.9-0.1-1.2-0.2-2.3-0.8-4 0.2-5.4 2-1.9 2.4-2.6 5.2-2.5 8 0.3 6.7 1.6 13 5.8 18.5 1.6 2.2 3.1 4.5 4.6 6.8 2.4 3.6 4.7 7.5 7.4 10.9 1.9 2.4 4.1 4.7 6.5 6.6 1.3 1 2.6 1.9 3.9 2.7 0.8 0.5 1.9 0.9 2.4 1.7 0.6 1.1 1 2.4 1.5 3.5 1.7 4.1 2.9 8.4 5.4 12.1 0.7 1.1 1.5 2.1 2.4 3.1 1.1 1.3 2.5 2.1 3.6 3.4 1.3 1.4 2.6 2.7 4.2 3.8 1.4 1 3 1.7 4.6 2.5 3.4 1.6 6.8 3.2 10.3 4.4 1 0.4 2 0.6 3 0.9 1.1 0.3 2 0.6 3.2 0.6 2.1 0.1 3.9-0.4 5.8-1 2-0.7 4.1-1.1 6.1-1.9 1.8-0.6 3.6-1.1 5.2-2.1 4.1-2.7 8.2-5.6 11.7-9.1 2.1-2.1 2.5-5.1 3.9-7.6 0.7-1.3 1.1-2.8 1.8-4.1s1.6-2.4 2.8-3.4c0.4-0.3 0.7-0.6 1.1-0.8 0.6-0.5 1.1-1.2 1.7-1.9s1.2-1.4 1.8-2.2c0.6-0.7 1.1-1.4 1.7-2.1 1.5-1.9 3.1-3.8 4.7-5.6 8.8-10.3 12.4-22.7 14.2-35.8-0.1-3.2-0.6-6.4-1.5-9.5zm-1.4 10.9c-0.9 4.2-1.9 8.4-3 12.6-1.7 6.3-4.3 12.1-8.4 17.2-3.8 4.8-7.8 9.6-11.6 14.3-0.3 0.4-0.7 0.8-1 1.2-0.2 0.4-0.3 0.8-0.5 1.2-0.4 0.9-1 1.6-1.6 2.4-0.3 0.4-0.5 0.7-0.9 1-0.7 0.7-1.2 1.5-1.6 2.4-0.2 0.3-0.3 0.7-0.4 1-0.9 2-1.3 4.4-2.4 6.2-1.1 1.9-3.2 3.4-4.9 4.7-3.4 2.8-6.9 5.6-11 7.1-1.4 0.6-2.8 0.9-4.2 1.3-3.8 1.1-7.8 1.8-11.8 1-3.8-0.8-7.2-2.5-10.8-3.8-1.1-0.4-2.2-0.8-3.2-1.4-0.8-0.4-1.4-0.9-2.1-1.5-1.9-1.5-3.9-3-5.6-4.7-0.9-0.9-1.7-1.8-2.5-2.7-0.6-0.7-1.4-1.3-1.9-2.1-1.4-2.2-2.6-4.7-3.6-7.1-0.5-1.1-0.9-2.3-1.3-3.5-0.3-1-0.8-1.9-1-3-0.1-0.8-0.1-1.5-0.3-2.3-0.2-0.6-1.3-1.8-2-1.8-1.5-0.9-3-1.7-4.4-2.8-5.8-4.3-10.2-9.7-13.8-15.9-1.7-2.9-3.5-5.9-5.6-8.6-4.3-5.5-5.8-11.9-6-18.6-0.1-2.6 0.7-4.9 2.3-7 0.9-1.2 1.9-1.6 3.3-1.2 6.4 1.7 12.8 3.4 18.5 6.6 1.8 1 3.7 2.1 5.4 3.2 1.8 1.1 3.5 2.3 5.2 3.5 1.7 1.3 3.3 2.6 4.9 3.9s3.1 2.9 4.5 4.4c0.7 0.8 1.4 1.6 2 2.4 0.3 0.4 0.7 0.8 1 1.2 0.2 0.2 0.3 0.4 0.5 0.6 0.3 0.4 0.7 0.8 1 1.1 0.4 0.5 0.8 1.1 1.2 1.6 0.4 0.6 0.8 1.1 1.3 1.6 0.1 0.1 0.2 0.3 0.3 0.4 0.2 0.3 0.5 0.6 0.9 0.6 0.5 0 1.1-0.1 1.6-0.1 1.1-0.1 2.2-0.2 3.2-0.5 6.1-1.8 12.2-2 18.4-0.6 0.5 0.1 1.2 0.3 1.7 0.2 0.6-0.1 1.3-0.1 1.9-0.4 0.4-0.1 0.8-0.2 1.1-0.4s0.5-0.2 0.8-0.3c1-0.4 1.8-1.1 2.6-1.7 0.7-0.6 1.3-1.3 1.9-2 0.5-0.5 0.9-1 1.4-1.4 4.6-4.4 9.8-8.1 15.3-11.4 7-4.2 14.3-7.6 22-10.3 1.8-0.6 2.2-0.4 2.6 1.5 1.1 3.9 1.4 7.3 0.6 10.7z"/>
		<path d="m566.8 208.5c-1.9-0.1-3.5-0.9-5.3-1.6-1.6-0.6-3.4-0.3-5-0.9-1.4-0.5-2.4-1.8-3.3-3s-0.7-2.6-0.2-3.8c0.1-0.3 0.7-0.6 1.1-0.6 0.6 0 0.6 0.5 0.5 1.1-0.8 3.4 0.6 5.4 4.1 5.7 1.4 0.1 2.8 0.1 4.2 0.1 1.3 0 2.8 0.2 4-0.7-0.8-0.5-1.5-1-2.3-1.5-1-0.7-1.6-1.6-1.3-2.9 0.5-1.8 2.6-3.2 4.7-3.1 1.6 0.1 2.8 0.8 3.7 2.1 0.8 1.1 0.6 2.3-0.2 3.3-0.3 0.4-2.5 1.6-2.5 2.1 0.1 1 1.2 0.7 1.9 0.7 1.5 0.1 3.1-0.1 4.6-0.6 0.7-0.2 1.3-0.6 2-0.8 1.3-0.4 3-1 3.1-2.5 0-0.8-1.2-2.3-0.7-3 0.4-0.5 1.1-0.1 1.4 0.3 0.6 0.7 0.4 1.8 0.3 2.6-0.1 1.6-1.7 2.6-3 3.3-1.7 0.9-3.7 1.2-5.4 2-1.8 0.9-3.7 1.5-5.7 1.6-0.3 0.1-0.5 0.1-0.7 0.1z"/>
		<path d="m551.4 189.1c-0.1 0.3 0 0.6 0.5 0.7 0.4 0.1 1.9-0.6 1.7 0.4-0.2 0.6-1 0.5-1.5 0.7-1.2 0.4-2.4 0.7-3.7 0.7-3.8 0.1-5.4-0.6-7.3-5.3-0.5-1.4-0.3-1.8 1.1-2.4 0.4-0.2 0.9-0.4 1.3-0.7 2.9-2.3 5.9-1.7 9 0.7 0.8 0.6 1.5 1.5 2.1 2.3 0.2 0.3 0.4 1.1 0 1.3-0.5 0.1-1.2-0.6-1.5-0.8s-0.6-0.4-0.9-0.7c-0.1-0.1-0.2-0.4-0.3-0.4-0.3 0-0.2 0.5-0.2 0.7 0.1 0.2 0.2 0.4 0.3 0.7s0 0.7-0.1 1c0 0.2-0.4 0.7-0.5 1.1z"/>
		<path d="m587.7 180.9c1.2 0.1 2.4 0.5 3.1 1.1 1 0.9 0.3 2.3-0.2 3.3-1.5 3-3.7 4.6-7 4.9-0.6 0.1-2.8 0.2-3-0.7-0.4-1.1 1.7-0.9 2.3-0.9 0.2 0 0.5-0.1 0.4-0.3-0.1-0.3-0.2-0.4-0.4-0.5-0.4-0.1-0.9-0.4-1.1-0.8s-0.3-0.8-0.3-1.2 0.3-1.1-0.4-1.1c-0.4-0.1-0.9 0.5-1.1 0.8s-0.3 1-0.8 0.9-0.4-1-0.3-1.4c0.6-2.3 3.8-4.4 6.5-4.4 0.8 0.2 1.5 0.2 2.3 0.3z"/>
	</g>
	<g id="ears_filling" fill="#F5BAB3">
		<path d="m534.2 171c0.7-1 0.7-2.4 1.4-3.4 1-1.6 2.5-2.6 4-3.7 0.3-0.3 3.4-2.3 3.3-2.8-1.2-3.6-4.9-6.5-7.4-9.1-3.2-3.1-6.7-6.9-10.7-8.9-3.6-1.9-7.4-3.3-11.2-4.7-3.5-1.3-1.6 3.4-1.1 4.8 0.8 2.4 1.7 4.9 2.8 7.3 2.3 4.7 5.5 8.9 8.9 12.7 1.2 1.3 8.3 10.2 10 8.1v-0.3z"/>
		<path d="m592 162.8c0.5 0.4 1.1 0.9 1.5 1.3 0.5 0.6 6 8.9 5.9 8.9 3.6-1.3 6.6-3.9 9-7 2.3-3.1 3.9-6.6 5.3-10.2 1.1-2.9 2.2-5.9 3.1-9 0.5-1.5 0.7-3.4-0.5-4.3-0.9-0.7-2.2-0.4-3.3-0.1-4.9 1.5-9.3 4.4-13.1 7.8-2 1.8-3.8 3.7-5.5 5.6-1.9 2-5.3 4.5-2.4 7z"/>
	</g>
</g>
<g id="silhouatte_2">
	<g id="silhouette_7_">
		<path d="m476.8 171.9c-0.2-0.6-0.7-1.2-1-1.8-0.2 0-0.3-0.1-0.5-0.1-0.1 0.1-0.1 0.1-0.2 0.1-9 2.6-17 7.3-24.1 13.4-0.1 0.1-0.1 0.1-0.2 0.1-0.6 0.5-1.2 1.1-1.8 1.7-0.3 0.3-0.4 0.7-0.7 1s-0.6 0.5-1 0.8c-0.4 0.3-0.8 0.5-1.2 0.7-0.8 0.3-1.3 0-2-0.2-0.5-0.1-1-0.2-1.5-0.4-2-0.6-4-0.9-6.1-0.5-1.2 0.3-2.4 0.6-3.5 0.9-1 0.3-2.1 0.8-3.1 0.9s-2-1.3-2.6-1.9c-0.8-0.9-1.5-1.9-2.3-2.8s-1.6-1.8-2.4-2.6l-0.4-0.4c-1.2-0.8-2.2-1.9-3.4-2.9-1.2-0.9-2.4-1.8-3.6-2.6-2.2-1.4-4.5-2.6-6.8-3.6-2.4-1-4.9-1.9-7.4-2.4-0.3-0.1-0.5-0.1-0.8-0.1-1.5-0.5-2.5 0.1-3.4 1.3-1.1 1.5-1.6 3.3-1.6 5.1 0.2 4.2 1 8.2 3.6 11.6 1 1.4 1.9 2.9 2.9 4.3 1.5 2.3 3 4.7 4.6 6.9 1.2 1.5 2.6 2.9 4.1 4.1 0.8 0.6 1.6 1.2 2.5 1.7 0.5 0.3 1.2 0.6 1.5 1.1 0.4 0.6 0.6 1.5 0.9 2.2 1.1 2.6 1.8 5.3 3.4 7.6 0.5 0.7 1 1.4 1.5 1.9 0.7 0.8 1.6 1.4 2.3 2.1 0.8 0.9 1.6 1.7 2.6 2.4 0.9 0.6 1.9 1.1 2.9 1.6 2.1 1 4.2 2 6.4 2.8 0.6 0.2 1.3 0.4 1.9 0.5 0.7 0.2 1.3 0.4 2 0.4 1.3 0 2.4-0.2 3.7-0.6s2.6-0.7 3.8-1.2c1.1-0.4 2.3-0.7 3.2-1.4 2.6-1.7 5.1-3.5 7.3-5.8 1.3-1.3 1.6-3.2 2.4-4.8 0.5-0.8 0.7-1.8 1.1-2.6 0.5-0.8 1-1.6 1.8-2.1 0.2-0.2 0.5-0.4 0.7-0.5 0.4-0.3 0.7-0.8 1-1.2 0.4-0.4 0.8-0.9 1.1-1.4 0.4-0.4 0.7-0.9 1.1-1.3 1-1.2 1.9-2.4 2.9-3.6 5.5-6.5 7.8-14.2 8.9-22.4 0.4-2 0.1-4-0.5-6zm-0.8 6.9c-0.6 2.6-1.2 5.3-1.9 7.9-1.1 3.9-2.7 7.6-5.3 10.8-2.4 3-4.9 6-7.3 9-0.2 0.3-0.4 0.5-0.6 0.8-0.1 0.2-0.2 0.5-0.3 0.7-0.3 0.5-0.6 1-1 1.5l-0.6 0.6c-0.4 0.4-0.8 0.9-1 1.5l-0.3 0.6c-0.5 1.3-0.8 2.7-1.5 3.9s-2 2.1-3.1 2.9c-2.1 1.7-4.3 3.5-6.9 4.5-0.9 0.4-1.8 0.6-2.6 0.8-2.4 0.7-4.9 1.1-7.4 0.6-2.4-0.5-4.5-1.6-6.8-2.4-0.7-0.3-1.4-0.5-2-0.9-0.5-0.3-0.9-0.6-1.3-0.9-1.2-0.9-2.4-1.9-3.5-2.9-0.5-0.5-1-1.1-1.5-1.7-0.4-0.4-0.9-0.8-1.2-1.3-0.9-1.4-1.6-2.9-2.3-4.4-0.3-0.7-0.5-1.4-0.8-2.2-0.2-0.6-0.5-1.2-0.6-1.9 0-0.5 0-0.9-0.2-1.4-0.1-0.4-0.8-1.1-1.2-1.1-0.9-0.6-1.9-1.1-2.8-1.7-3.6-2.7-6.4-6.1-8.6-10-1.1-1.9-2.2-3.7-3.5-5.4-2.7-3.4-3.7-7.4-3.8-11.7-0.1-1.6 0.4-3.1 1.5-4.4 0.6-0.7 1.2-1 2.1-0.8 4 1.1 8 2.1 11.6 4.1 1.1 0.6 2.3 1.3 3.4 2s2.2 1.4 3.3 2.2 2.1 1.6 3.1 2.4c1 0.9 2 1.8 2.9 2.8 0.4 0.5 0.9 1 1.3 1.5 0.2 0.3 0.4 0.5 0.6 0.8 0.1 0.1 0.2 0.3 0.3 0.4 0.2 0.3 0.4 0.5 0.6 0.7 0.3 0.3 0.5 0.7 0.7 1 0.3 0.4 0.5 0.7 0.8 1 0.1 0.1 0.1 0.1 0.2 0.3s0.4 0.4 0.6 0.4c0.3 0 0.7-0.1 1-0.1 0.7-0.1 1.4-0.1 2-0.3 3.8-1.1 7.7-1.3 11.6-0.4 0.3 0.1 0.7 0.2 1 0.1 0.4-0.1 0.8-0.1 1.2-0.2 0.2-0.1 0.5-0.1 0.7-0.3 0.1-0.1 0.3-0.1 0.5-0.2 0.6-0.2 1.1-0.6 1.6-1.1 0.5-0.4 0.8-0.8 1.2-1.3l0.9-0.9c2.9-2.8 6.2-5.1 9.6-7.1 4.4-2.6 9-4.8 13.8-6.4 1.1-0.4 1.4-0.3 1.6 0.9 0.4 2.4 0.6 4.5 0.2 6.7z"/>
		<path d="m438.5 222.2c-1.2-0.1-2.2-0.6-3.4-1-1-0.4-2.1-0.2-3.2-0.6-0.9-0.3-1.5-1.1-2-1.9-0.5-0.7-0.5-1.6-0.1-2.4 0.1-0.2 0.5-0.4 0.7-0.4 0.4 0 0.4 0.3 0.3 0.7-0.5 2.1 0.4 3.4 2.6 3.6 0.9 0.1 1.7 0.1 2.6 0 0.9 0 1.8 0.1 2.5-0.4-0.5-0.3-1-0.6-1.4-0.9-0.6-0.4-1-1-0.8-1.8 0.3-1.1 1.6-2 3-2 1 0.1 1.8 0.5 2.3 1.3 0.5 0.7 0.4 1.4-0.1 2.1-0.2 0.3-1.6 1-1.6 1.4 0.1 0.6 0.8 0.4 1.2 0.4 1 0.1 2-0.1 2.9-0.4 0.4-0.1 0.8-0.4 1.3-0.5 0.8-0.2 1.9-0.6 1.9-1.6 0-0.5-0.8-1.4-0.4-1.9 0.2-0.3 0.7-0.1 0.9 0.2 0.4 0.4 0.3 1.1 0.2 1.6-0.1 1.1-1.1 1.6-1.9 2.1-1.1 0.6-2.3 0.8-3.4 1.3-1.1 0.6-2.3 0.9-3.6 1-0.3 0.1-0.4 0.1-0.5 0.1z"/>
		<path d="m428.8 210c0 0.2 0 0.4 0.3 0.4 0.3 0.1 1.2-0.4 1 0.2-0.1 0.4-0.6 0.3-0.9 0.4-0.8 0.2-1.5 0.4-2.3 0.4-2.4 0-3.4-0.4-4.6-3.3-0.3-0.9-0.2-1.1 0.7-1.5 0.3-0.1 0.5-0.3 0.8-0.4 1.8-1.4 3.7-1.1 5.6 0.4 0.5 0.4 1 0.9 1.3 1.4 0.1 0.2 0.3 0.7 0 0.8s-0.8-0.4-1-0.5-0.4-0.3-0.5-0.4-0.1-0.3-0.2-0.3c-0.2 0-0.1 0.3-0.1 0.4 0.1 0.1 0.1 0.3 0.2 0.4 0 0.2 0 0.4-0.1 0.6 0.1 0.4-0.1 0.8-0.2 1z"/>
		<path d="m451.5 204.9c0.7 0.1 1.5 0.3 1.9 0.7 0.6 0.6 0.2 1.4-0.1 2.1-0.9 1.9-2.3 2.9-4.4 3.1-0.4 0-1.7 0.1-1.9-0.4-0.2-0.7 1.1-0.6 1.4-0.6 0.1 0 0.3-0.1 0.3-0.2 0-0.2-0.1-0.3-0.3-0.3-0.2-0.1-0.6-0.3-0.7-0.5-0.1-0.3-0.1-0.5-0.1-0.8s0.2-0.7-0.2-0.7c-0.3 0-0.6 0.3-0.7 0.5s-0.2 0.6-0.5 0.5-0.2-0.6-0.2-0.9c0.4-1.4 2.4-2.8 4.1-2.7 0.5 0.1 1 0.1 1.4 0.2z"/>
	</g>
</g>
<g id="head_x5F_1">
	<path id="filling_2_" d="m504.3 24.5c-1.3-0.4-2.7 0.4-3.4 1.5s-0.9 2.5-0.9 3.9c-0.3 10.5 5.9 19.9 11.9 28.5 3.1 4.4 6 8.6 9.5 12.7 2.8 3.2 8.8 2.9 10.8 6.7 1.2 2.2 0.3 5.7 1 8.1 0.7 2.7 2.5 5 4.3 7.1 4.1 4.9 8.4 9.8 14 12.8 2.4 1.3 5 2.2 7.6 3 2.6 0.9 5.3 1.7 8.1 1.9 5.4 0.3 10.6-2.1 15.4-4.5 2-1 4.2-2.1 5.9-3.6 1.4-1.2 2.9-2.1 4.4-3.3 0.9-0.7 1.4-1.8 1.9-2.8 1.7-3.4 3.1-6.8 4.2-10.4 0.3-0.9 0.6-1.9 1.1-2.7 1-1.6 2.8-2.8 3.9-4.3 1.4-1.8 3-3.4 4.5-5.2 7.1-8 12.5-17.4 15.9-27.5 1.7-5 2.9-10.4 2.4-15.6-0.1-1-0.4-2-1.1-2.8-2.2-2.1-8.6 1.3-10.8 2.3-3.7 1.9-7 4.2-10.5 6.4-6.2 3.9-12.4 7.8-17.6 13-2.7 2.7-5.5 5.8-9.3 5.7-1.5 0-3-0.7-4.5-1-2.9-0.7-5.8-0.5-8.8-0.3-3.8 0.3-7.7 0.6-11.2 2.2-2.1-1-4.1-2.9-5.5-4.8-9.5-12-22.5-21.3-37-26.1-2.2-0.9-4-0.2-6.2-0.9z" fill="#FCEED8"/>
	<g id="spots">
		<g fill="#F2C88F">
			<path d="m537.5 82.1c0.3-0.2 0.6-0.3 1-0.5v-0.4l0.6-0.6c0.9-0.4 1.7-0.8 2.5-1.2 0.5 0 1.1 0.1 1.6 0 0.6-0.2 1.2-0.1 1.8-0.2 0.2 0.2 0.3 0.2 0.2 0.4-0.2 0.5-0.5 0.9-0.8 1.3-0.3 0.5-0.5 1-0.7 1.5-0.4 0.9-0.7 1.9-0.7 2.9v0.3c-0.1 0.1-0.5 0.1-0.6 0.1h-0.8c-0.6-0.7-1.2-1.4-1.8-2.1-0.7-0.2-1.3-0.4-1.8-0.9-0.2-0.2-0.3-0.3-0.5-0.4v-0.2z"/>
			<path d="m585.3 97.6c-0.3 0-0.4 0.1-0.5 0.1 0 0.3 0.1 0.6 0.2 0.9h-0.5c-0.3 0.3-0.5 0.6-0.7 0.8-0.7 0-0.7 0-1.3-0.4v-2c0-0.6-0.2-1.2-0.2-1.9-0.8-0.8-2.2-1.3-2.6-2.6-0.7-0.4-1.3-0.7-1.9-1.1v-0.9h0.8c0.2-0.3 0.3-0.7 0.5-1h0.8c0.6 0.4 1.3 0.6 2 0.6 0.3 0.4 0.3 0.4 0.3 0.9 0.7-0.1 1 0.5 1.4 0.8s0.8 0.8 1.2 1.2c0.3 0.3 0.5 0.6 0.4 1.1 0 1 0.4 1.9 0.6 2.8-0.1 0-0.2 0.1-0.3 0.1-0.2 0.1-0.2 0.3-0.2 0.6z"/>
			<path d="m557.2 89.4c0.1 0.2 0.2 0.3 0.3 0.4l1.5 0.3v1.7c-0.6 0.4-1.3 0.8-2.2 0.8-0.1 0.2-0.3 0.3-0.5 0.5v0.4c-0.9 0.5-1.7 1.2-2.3 2.2v0.7c-0.1 0.1-0.3 0.2-0.4 0.3v1.3c0.1 0.1 0.3 0.2 0.6 0.4-0.2 0.9 0.4 1.8 0.1 2.8-0.5-0.2-0.9-0.6-1.5-0.4-0.6-0.4-0.7-1.1-0.8-1.7-0.1 0-0.2 0-0.3-0.1-0.1-0.3-0.3-0.7-0.4-1.1 0-0.5-0.1-1.1-0.2-1.7 0.1-0.1 0.2-0.3 0.4-0.4v-0.5-0.1c0.6-0.4 0.6-1.2 1-1.7 0.1-0.3 0.5-0.3 0.7-0.7 0.1-0.3 0.5-0.5 0.7-0.8 0.3-0.3 0.7-0.7 0.9-1.2 0.1-0.3 0.3-0.5 0.6-0.6 0.7-0.2 1.2-0.5 1.8-0.8z"/>
			<path d="m594.3 81.8c0 0.6-0.5 0.7-0.8 1.1v0.4l-1.5 1.5h-0.5l-0.3-0.3c-0.2-0.2-0.2-0.4-0.3-0.6-0.2-0.8-0.5-1.4-0.8-2.1-0.2-0.4-0.4-0.9-0.6-1.4-0.1-0.3-0.1-0.5-0.2-0.7s-0.2-0.4-0.1-0.6l0.3-0.3c0.4 0 0.8-0.2 1.1 0 0.7 0.5 1.6-0.1 2.3 0.4 0.3-0.1 0.5-0.2 0.6-0.3 0.6 0.3 1.1 0.6 1.7 0.8v1.2c-0.1 0.3-0.3 0.5-0.5 0.8-0.1 0.1-0.2 0.1-0.4 0.1z"/>
		</g>
			<path d="m544.3 47.8v0.3c-0.3 0-0.3 0.1-0.5 0.1 0.1 0.5 0.1 1 0.2 1.5h0.4c-0.1 0.3-0.2 0.4-0.2 0.5 0.1 0.3 0.2 0.6 0.4 1-0.1 0.1-0.2 0.2-0.4 0.2h-0.5v0.7c0.5 0.5 0.8 1 1.2 1.3 0.4 0.4 0.8 0.7 1.3 1v0.7c-0.3 0-0.3 0.1-0.4 0.1 0.6 0.6 1.1 1.1 1.8 1.4 0.2 0.1 0.3 0.2 0.4 0.3 0.1 0.2 0.2 0.3 0.3 0.5-0.2 0.1-0.5 0.3-0.8 0.4 0.3 0.3 0.5 0.5 0.7 0.8 0.5 0.1 0.9 0.2 1.3 0.2s0.8 0 1.4 0.1c-0.3 0.2-0.5 0.4-0.7 0.5v0.6c0.3 0.3 0.6 0.4 1 0.5 0.3 0 0.5 0.2 0.8 0.3l0.1 0.2c-0.1 0.2-0.3 0.4-0.5 0.6 0.3 0.2 0.6 0.5 1 0.7 0.4-0.1 0.9 0.2 1.3-0.2 0.4 0.1 0.9 0.2 1.4 0.3 0.4 0.3 0.8 0.6 1.3 0.9 0 1.5 0 1.5 0.7 2.1 1-0.1 1.4 1.1 2.3 1.2 0.3 0.4 0.5 0.8 0.9 1.3-0.2 0.4 0.5 0.5 0.4 1 0 0.1 0.2 0.2 0.3 0.3 0.3 0.2 0.6 0.4 0.8 0.7 0.3 0.3 0.5 0.6 0.7 0.9 0.1 0.2 0.1 0.5 0.2 0.6 0.3 0.3 0.2 0.6 0.2 0.8 0.3 0.2 0.5 0.4 0.7 0.5 0.1 1 0.2 1.9 0.3 2.9 0.1 0.1 0.2 0.3 0.3 0.3-0.1 0.4-0.2 0.8-0.2 1.1l0.6 0.3c-0.1 0.2-0.3 0.3-0.3 0.4 0.2 0.5 0.3 0.9 0.5 1.4 0.3 0.2 0.6 0.5 1 0.9 0 0.4 0.1 0.9 0 1.3s-0.3 0.9-0.1 1.4c0.4 0.4 1 0.6 1.5 0.8l0.2-0.2c0.5 0.1 1 0.5 1.5 0.3v-1.1c0.3-0.1 0.5-0.1 0.7-0.2 0.1 0.3 0.1 0.4 0.2 0.6 0.1 0 0.1 0 0.4-0.1v-1c0-0.1 0.2-0.1 0.3-0.1 0.1-0.3 0.2-0.7 0.2-1l-0.4-0.4c0.4-0.4 0.3-0.9 0.2-1.3-0.3-0.9-0.1-1.8-0.2-2.6 0-0.2 0.2-0.6 0.3-0.6h0.4c-0.1-0.5 0.3-0.4 0.5-0.7s0.1-0.7 0.2-1c0.5-0.3 0.3-1.1 0.8-1.2 0.1-0.7 0.2-1.3 0.3-1.8 0-0.6 0.3-1.1 0.5-1.7 0.4-0.1 0.7-0.2 1-0.3v-0.3c-0.3 0-0.5-0.1-0.9-0.1 0.3-0.1 0.5-0.1 0.5-0.2v-1.2c0.3 0 0.3-0.1 0.4-0.1-0.1-0.1-0.1-0.2-0.1-0.3 0.1-0.3 0.3-0.6 0.4-0.9 0.2-0.1 0.4-0.2 0.6-0.2 0.1 0.1 0.2 0.1 0.3 0.2 0-0.2 0.1-0.3 0.1-0.3h0.4c0.3-0.3 0.4-0.4 0.5-0.6h-0.9c0.1-0.3 0.3-0.7 0.4-0.9h0.6l-0.5-0.6c-0.3-0.6 0.3-0.8 0.4-1.3 0.2 0.1 0.4 0.2 0.7 0.2 0.7-0.2 1-0.8 1.2-1.5 0.2 0.1 0.4 0.1 0.7 0.3-0.1-0.3-0.2-0.4-0.3-0.5 0.1 0 0.3-0.1 0.3-0.1v-0.8c0.5-0.3 1-0.5 1.5-0.8 0.2 0.1 0.3 0.2 0.5 0.3 0-0.2 0.1-0.4 0.1-0.6 0.3 0.1 0.7 0.2 1 0.2 0 0 0.1-0.1 0 0 0-0.2-0.1-0.3-0.1-0.5 0.2 0 0.3 0 0.3-0.1v-0.5c0.2-0.3 0.3-0.3 0.5-0.6h0.6c0.1-0.3 0.2-0.3 0.3-0.4 0.4 0.2 0.8 0 1.1-0.2v-0.8c-0.3-0.2-0.5-0.3-0.9-0.6 0.8 0.1 1.6-0.1 1.9-0.7v-0.7c0.3-0.2 0.5-0.3 0.7-0.4s0.5-0.2 0.6-0.3c0.1 0 0.2 0.1 0.3 0.2 0.2-0.2 0.3-0.4 0.5-0.6 0-0.5 0.1-1.1 0.5-1.5 0.1-1.1 0.6-1.8 0.7-2.8-0.2-0.1-0.4-0.3-0.5-0.4l-1.5 1.5c-2.7 2.7-5.5 5.8-9.3 5.7-1.5 0-3-0.7-4.5-1-2.8-0.7-5.8-0.5-8.8-0.3-3.6 0.3-7.3 0.6-10.7 2h-0.1c-0.1 0-0.3 0.1-0.4 0.2-2.1-1-4.1-2.9-5.5-4.8-1-1.3-2-2.5-3.1-3.7l-0.7 0.1z" fill="#F2C98F"/>
	</g>
	<g id="silhouette_4_">
		<path d="m628 22.5c0.5 1 1.3 1.9 1.6 2.9 0.9 3.2 1.4 6.5 1 9.7-1.8 13.3-5.5 26-14.5 36.4-3.2 3.8-6.3 7.6-9.4 11.4-0.5 0.6-1 1.1-1.6 1.5-0.3 0.2-1 0.3-1.3 0s-0.4-0.9-0.2-1.3c0.2-0.6 0.7-1.1 1.1-1.6 4-4.9 7.9-9.7 11.8-14.6 4.2-5.2 6.8-11.2 8.5-17.5 1.2-4.3 2.2-8.6 3.1-12.9 0.7-3.5 0.4-7-0.3-10.4-0.4-1.9-0.8-2.1-2.7-1.5-7.9 2.7-15.3 6.2-22.4 10.5-5.6 3.3-10.8 7.1-15.6 11.6-1.2 1.1-2.2 2.5-3.3 3.7-0.3 0.3-0.6 0.4-1 0.6 0-0.3 0-0.7 0.2-1 1.1-2.2 2.6-4.1 4.5-5.7 11.5-10 24.4-17.5 39.1-21.7 0.1 0 0.2-0.1 0.4-0.2 0.5 0.1 0.8 0.1 1 0.1z"/>
		<path d="m506.5 21.2c12.6 3 23.8 8.7 33.3 17.6 2.9 2.7 5.3 5.9 7.9 9 0.3 0.4 0.5 0.8 0.8 1.3 0.1 0.2 0 0.4 0 0.6-0.2 0-0.4 0-0.5-0.1-0.2-0.1-0.3-0.3-0.4-0.5-6.5-8.6-15-14.8-24.3-19.9-5.9-3.3-12.4-5.1-18.9-6.7-1.4-0.4-2.5 0-3.4 1.2-1.6 2.1-2.5 4.6-2.4 7.2 0.2 6.9 1.8 13.4 6.1 19 2.1 2.7 4 5.8 5.7 8.8 3.7 6.3 8.2 11.9 14 16.2 1.4 1.1 3 1.9 4.5 2.8 0.6 0.3 1.2 0.6 1.6 1.1s0.2 1.1-0.5 1c-0.8-0.1-1.5-0.4-2.2-0.8-5-2.6-9.3-6.2-12.7-10.6-2.8-3.5-5-7.4-7.5-11.2-1.5-2.3-3-4.7-4.6-6.9-4.2-5.6-5.6-12.1-5.9-18.9-0.1-3 0.6-5.8 2.5-8.2 1.5-1.9 3.1-2.9 5.5-2.1 0.5 0 1 0 1.4 0.1z"/>
		<path d="m600.6 88.5c-0.1 0.6-0.2 1.3-0.4 2.4-0.5 2.9-1.6 6.9-3.7 9-1.6 1.6-3.3 3.2-5 4.7-1.9 1.7-4.4 2.9-6.5 4.3-2.8 1.8-5.6 2.9-8.8 3.9-1.3 0.4-2.6 0.9-3.9 1.4-2 0.8-3.8 0.7-5.9 0.3-1.9-0.3-3.8-0.9-5.5-1.6-3.6-1.3-7-2.9-10.5-4.5-1.6-0.8-3.2-1.5-4.6-2.5-1.6-1.1-3-2.5-4.3-3.9-1.2-1.3-2.6-2.2-3.7-3.4-2.9-3.2-4.8-6.9-6.3-10.8-0.1-0.3 0-0.8 0-1.2 0.3 0.3 0.8 0.6 1 0.9 1.6 2.7 3.2 5.4 4.9 8 0.5 0.8 1.3 1.4 2 2.1 0.8 0.9 1.6 1.9 2.5 2.8 1.8 1.7 3.8 3.3 5.7 4.8 0.7 0.6 1.4 1.1 2.2 1.5 1 0.6 2.1 1 3.2 1.4 3.7 1.3 7.2 3.1 11 3.8 4 0.8 8.1 0.1 12-1 1.4-0.4 2.9-0.8 4.3-1.3 4.1-1.6 7.7-4.5 11.2-7.3 1.7-1.3 3.9-2.9 5-4.8s1.5-4.3 2.4-6.3l1.2-2.7c0.1-0.2 0.3-0.2 0.5-0.3-0.1-0.1 0 0.1 0 0.3z"/>
		<path d="m568 107.2c-1.9-0.1-3.6-0.9-5.4-1.6-1.7-0.6-3.5-0.3-5.2-0.9-1.5-0.5-2.5-1.8-3.3-3.1-0.8-1.2-0.7-2.6-0.2-3.9 0.1-0.3 0.7-0.6 1.1-0.6 0.6 0 0.6 0.5 0.5 1.1-0.8 3.5 0.6 5.6 4.2 5.8 1.4 0.1 2.8 0.1 4.2 0.1s2.9 0.2 4-0.7c-0.8-0.5-1.6-1-2.3-1.6-1-0.7-1.7-1.6-1.3-2.9 0.4-1.8 2.7-3.3 4.8-3.2 1.6 0.1 2.9 0.8 3.8 2.1 0.8 1.1 0.7 2.3-0.2 3.3-0.3 0.4-2.6 1.7-2.5 2.2 0.2 1.1 1.2 0.7 2 0.7 1.6 0.1 3.2-0.1 4.7-0.6 0.7-0.2 1.3-0.6 2-0.8 1.3-0.3 3-1 3.1-2.6 0-0.8-1.3-2.3-0.7-3.1 0.4-0.5 1.1-0.1 1.4 0.3 0.6 0.7 0.4 1.8 0.3 2.7-0.1 1.7-1.7 2.7-3.1 3.4-1.8 0.9-3.7 1.2-5.5 2.1s-3.8 1.5-5.8 1.6c-0.2 0.2-0.4 0.2-0.6 0.2z"/>
		<path d="m552.1 86.3c-0.1 0.3 0 0.6 0.5 0.7 0.4 0.1 2-0.6 1.7 0.4-0.2 0.6-1 0.6-1.5 0.7-1.2 0.3-2.5 0.7-3.7 0.8-3.9 0.1-5.5-0.6-7.4-5.3-0.5-1.4-0.3-1.8 1.1-2.5 0.5-0.2 0.9-0.4 1.3-0.7 3-2.3 6-1.8 9.2 0.7 0.8 0.6 1.5 1.5 2.1 2.4 0.2 0.3 0.5 1.1 0 1.3s-1.3-0.6-1.6-0.8-0.6-0.4-0.8-0.7c-0.1-0.1-0.2-0.4-0.4-0.4-0.3 0-0.2 0.6-0.2 0.8 0.1 0.2 0.2 0.4 0.3 0.7s0 0.7-0.1 1c0 0-0.4 0.5-0.5 0.9z"/>
		<path d="m588.7 79.1c1.2 0.2 2.4 0.5 3.1 1.2 1.1 0.9 0.3 2.3-0.2 3.4-1.5 3.1-3.8 4.7-7.1 5.1-0.6 0.1-2.8 0.2-3-0.7-0.4-1.1 1.8-0.9 2.3-0.9 0.2 0 0.4-0.1 0.4-0.3 0-0.3-0.1-0.4-0.4-0.5-0.4-0.2-0.9-0.4-1.1-0.8s-0.3-0.8-0.3-1.2 0.3-1.1-0.4-1.2c-0.5-0.1-1 0.5-1.2 0.8s-0.3 1-0.8 0.8c-0.5-0.1-0.4-1.1-0.3-1.4 0.7-2.4 3.9-4.4 6.7-4.4 0.7-0.1 1.5-0.1 2.3 0.1z"/>
		<path d="m578.7 52.4v0.3c-0.2 0.3-0.9 0.4-1.2 0.5-0.5 0.1-1.2-0.1-1.7-0.2-6.3-1.5-12.5-1.3-18.8 0.5-1.6 0.5-3.3 0.5-5 0.7-0.2 0-0.5-0.2-0.7-0.3 0.1-0.2 0.2-0.6 0.4-0.7 0.9-0.4 1.8-0.8 2.8-1.1 3.3-0.9 6.5-1.9 9.9-2.5 3.3-0.7 6.7-0.2 9.9 0.8 1.1 0.3 2.2 0.5 3.3 0.8 0.5 0.2 1.1 0.5 1.1 1.2z"/>
	</g>
	<g id="ears_filling_1_">
		<g fill="#F4BAB3">
			<path d="m524.1 44.5c0.1-0.4-0.1-0.7-0.4-0.9 0.1-0.2 0.2-0.3 0.2-0.5 0-0.1-0.1-0.2-0.2-0.5 0.7 0.4 1.1 0.9 1.2 1.5 0.3-0.1 0.5-0.2 0.7-0.3-0.1-0.3-0.2-0.7-0.2-1.1 0.3 0.2 0.4 0.5 0.8 0.4 0.2 0 0.4 0.3 0.6 0.4 0.2-0.1 0.3-0.2 0.5-0.3 0.3 0.4 0.7 0.8 1 1.2 0.5-0.2 0.6 0.3 0.8 0.7 0.2-0.2 0.3-0.4 0.5-0.5 0.5 1.1 0.8 2.3 1.6 3.1 0.1-0.2 0.2-0.4 0.3-0.5 0-0.2 0-0.5 0.2-0.7 0.2-0.1 0.2-0.3 0.4-0.6 0.1 0.3 0.2 0.5 0.3 0.7 0.3 0.2 0.6-0.1 1-0.2 0.4 0.9 0.4 1.7 0.1 2.6l0.1 0.1h0.2c0.1-0.3 0.2-0.6 0.4-1 0.1 0.2 0.3 0.3 0.4 0.5 0.1-0.2 0.3-0.3 0.5-0.8-0.1 0.6 0.1 1-0.2 1.4-0.1 0.1-0.2 0.7-0.1 0.7 0.2-0.3 0.3-0.3 0.3-0.4 0-0.3 0.2-0.2 0.4-0.2 0.1 0 0 0 0 0v0.8h0.1c0-0.3 0-0.5-0.1-0.8-0.1-0.1-0.1-0.2-0.1-0.3h0.3c0.2 0.2 0.4 0.5 0.6 0.7-0.2 0.3-0.4 0.7-0.6 1 0.3 0.6 0.6 1.2 1 1.8 0.1 0.2 0.4 0.3 0.7 0.5 0.1 0.3 0.2 0.8 0.3 1.2 0.1-0.2 0.2-0.3 0.2-0.5 0.1 0.1 0.3 0.2 0.4 0.3v0.6c0.9 0.4 1.1 1.4 1.9 2-0.4 0-0.5 0.1-0.9 0.1 0.3 0.1 0.4 0.2 0.6 0.3 0.1 0 0.3-0.1 0.5-0.2v0.9c-0.1 0-0.2 0-0.3 0.1v0.3h0.5c0.1-0.2 0.1-0.3 0.2-0.4 0.1 0.2 0.2 0.3 0.3 0.5-0.2 0.1-0.5 0.2-0.8 0.3v0.4c0.2 0 0.4 0 0.8-0.1 0 0.1 0.1 0.3 0.3 0.6-0.3 0-0.5 0.1-0.7 0.1 0.1 0.1 0.1 0.2 0.2 0.3l-0.6 1.5c0.6 0.1 0.5-0.7 1.2-0.4-0.3-0.3-0.3-0.4-0.3-0.4 0.1-0.3 0.3-0.6 0.5-0.9 0 0 0.1 0.2 0.3 0.3-0.2 1-0.3 2-0.5 3-0.4 0.2-0.4 0.7-0.5 1.1-0.3 0.7-0.5 1.1-1.3 1.5-0.2-0.6 0.2-0.9 0.5-1.2 0.1-0.5 0.2-0.8 0.2-1.3 0 0-0.1 0-0.3-0.1 0 0.3 0 0.6-0.1 0.8-0.4 0.8-1.2 1.3-1.1 2.2-0.1 0.1-0.2 0.1-0.3 0.1-0.1 0.4-0.2 0.8-0.3 1.1-0.3 0.5-0.6 0.9-0.9 1.4-0.1-0.1-0.2-0.1-0.4-0.2-0.1 0.4-0.2 0.9-0.3 1.5-0.2 0.1-0.4 0.3-0.7 0.4 0 0.2 0 0.4-0.1 0.6-0.1 0-0.3 0-0.3-0.1-0.1-0.2-0.2-0.3-0.3-0.7-0.3 0.4-0.6 0.7-0.9 1-0.3-0.4-0.4-0.7-0.8-1-0.3-0.2-0.3-0.6-0.4-0.9-0.2-0.3-0.8-0.2-0.7-0.7-0.5-0.2-1-0.3-1.5-0.4-0.2 0.3 0.1 0.5 0.3 0.6 0.3 0.1 0.5 0.2 0.8 0.2-0.1 0.4-0.2 0.7-0.6 0.8 0 0.1 0.1 0.1 0.2 0.2l-0.3 0.3c-0.4-0.1-0.7-0.1-1.1-0.2s-0.8-0.1-0.9-0.6c-0.2-0.5-0.8-0.6-1.1-1-0.6 0.1-0.9-0.6-1.4-0.8 0.1-0.3 0.1-0.7 0.2-1.1-0.4-0.4-0.5-1.1-1.2-1.4-0.3-0.2-0.3-0.6-0.5-0.8-0.1 0-0.2-0.1-0.3-0.1v-0.5c0.1 0 0.3-0.1 0.3-0.1 0.1-0.4-0.3-0.8-0.9-1v-0.7h-0.5v-0.7c-0.3-0.3-0.5-0.7-0.8-1.1-0.4 0-1 0.1-1.1-0.6-0.3 0.1-0.5 0.2-0.8 0.3-0.1-0.2-0.3-0.4-0.5-0.8 0.1-0.1 0.2-0.3 0.3-0.5-0.3-0.1-0.6-0.2-1-0.3 0.2-0.3 0.3-0.5 0.5-0.7-0.6-0.4-1.1-0.9-1.5-1.5l-0.3 0.3c0-0.2 0-0.3-0.1-0.4-0.4-0.4-0.9-0.8-1.3-1.2 0.1-0.3 0.1-0.5 0.2-0.7-0.9-1.2-1.7-2.5-3.1-3.1 0.1-0.1 0.1-0.2 0.2-0.2-0.2-0.2-0.3-0.4-0.5-0.5-0.5-0.1-0.4-0.7-0.8-0.9 0-0.6-0.4-0.9-0.8-1.3v-0.2s0.1-0.1 0.2-0.1c0.3 0.2 0.5 0.4 0.8 0.7 0.1-0.1 0.1-0.2 0.2-0.3-0.6-0.7-1.3-1.5-1.9-2.2v-0.4c0.1 0 0.2 0 0.4-0.1-0.1-0.2-0.2-0.4-0.3-0.7 0.1 0 0.2-0.1 0.4-0.2-0.2-0.5-0.8-0.8-0.8-1.5l0.5-0.5c0.4 0.2 0.7 0.3 1.1 0.5 0.1-0.2 0.1-0.3 0.1-0.3l0.9 0.9 0.1-0.1h0.3s0.1 0.1 0.1 0.2c0 0-0.1-0.1-0.2-0.1v-0.5c-0.4-0.3-0.9-0.8-1.4-1.1-0.1-0.1-0.2 0-0.4-0.1l-0.2-0.2s-0.1-0.1-0.1-0.2c0 0 0.1 0.1 0.2 0.1s0.1 0.1 0.2 0.2v0.5c-0.2-0.1-0.4-0.2-0.5-0.3-0.2-0.7-0.7-1.2-1.1-1.7-0.4-0.6-0.9-1.3-1.3-1.9v-0.4c0.2 0 0.4 0 0.7 0.1 0.1-0.1 0.2-0.3 0.4-0.5 0.3 0.2 0.6 0.3 0.9 0.5 0.1-0.1 0.3-0.2 0.4-0.4h0.8c0.6 0.3 0.8 1 1.7 1.3h0.8c0.4 0.7 0.8 1.2 1.5 1.2 0.2-0.1 0.4-0.2 0.5-0.3-0.3-0.2-0.5-0.3-0.7-0.5 0.2-0.1 0.4-0.2 0.6-0.2-0.5-0.3-0.9-0.5-1.4-0.5-0.4-0.3-0.7-0.7-1.1-1 0.1-0.2 0.4-0.2 0.5-0.1 0.3 0.2 0.7 0.2 1 0.1 0.3-0.2 0.5-0.2 0.8 0 0.2 0.1 0.6 0.1 0.8 0.1 0.2 0.1 0.4 0.3 0.5 0.3 0.4 0.2 0.7 0.3 0.8 0.8 0 0.2 0.3 0.4 0.5 0.5 0.6 0.1 0.5 0.9 1.1 1 0.1 0 0.2 0.3 0.2 0.4 0 0.7 0.5 1 0.9 1.5 0.3-0.1 0.6-0.2 0.9-0.2 0.2 0.2 0.4 0.3 0.5 0.5-0.2 0.7-0.2 1.5 0.6 2 0.1 0.5 0.3 0.7 0.8 0.8 0 0 0.1 0.1 0.1 0.2 0 0-0.1-0.1-0.2-0.1-0.1-0.2-0.1-0.3-0.2-0.5-0.1-0.3-0.2-0.4-0.5-0.4zm-2.1 11.5c0.5 0.4 0.6 0.4 1.4-0.3-0.1-0.3-0.2-0.7-0.3-1l-0.5 0.5h-0.6v0.8zm9.7-5.3c0.3 0.2 0.5 0.6 0.8 0.7l0.3-0.3c0.1-0.4 0.1-0.8 0.2-1.3-0.1-0.1-0.3-0.2-0.5-0.3 0 0.3-0.1 0.4-0.1 0.6-0.2 0.2-0.6 0.1-0.7 0.6zm9 11.7h0.2c0-0.2 0-0.3-0.1-0.5h-0.1v0.5z"/>
			<path d="m599.2 53.8v-0.8l0.3-0.3c0.1 0 0.1 0.1 0.2 0.2 0-0.7 0.7-0.6 1-0.9v-0.4c0.2 0 0.3-0.1 0.6-0.1v-0.9h0.3c0.1 0.3 0.2 0.5 0.3 0.8 0.6-0.3 1.1-0.6 1.5-0.8 0.3-0.5 0.6-0.9 0.9-1.3 0-0.5 0.2-1 0.5-1.6 0.4-0.7 0.8-1.4 1.2-2 0.3-0.5 0.8-0.8 1.5-1 0.2-0.2 0.5-0.5 0.8-0.9 0.7 0.1 1.4 0.3 2.1 0.4 0.1-0.2 0.3-0.3 0.5-0.6 0.2-0.5 0.7-0.8 1-1.2 0.1-0.2 0.3-0.3 0.3-0.5 0.3-0.4 0.7-0.8 1.2-0.7 0 0.1 0.1 0.2 0.1 0.3 0.1 0 0.3-0.1 0.4-0.2 0 0.1 0.1 0.2 0.1 0.4 0.5-0.3 1.1-0.1 1.6-0.5 0.3-0.3 0.7-0.5 1.2-0.9 0 0.3 0 0.5-0.1 0.5-0.1 0.2-0.2 0.3-0.2 0.5 0.1 0 0.2-0.1 0.2-0.1 0.4 0 0.3-0.5 0.6-0.6 0.3 0 0.6 0 0.7-0.3l1.5-0.3c0 0.1 0.1 0.3 0.1 0.4h0.6c0 0.1 0.1 0.2 0.1 0.3 0.2 0 0.3 0 0.6 0.1-0.1 0.3-0.2 0.5-0.2 0.8 0.2 0.2 0.4 0.3 0.7 0.5-0.2 0.3-0.3 0.6-0.4 0.8-0.4 0.8-0.9 1.5-1.4 2.3-0.3 0.5-0.5 1-0.8 1.5-0.2 0.3-0.4 0.6-0.5 1 0 0.2-0.1 0.5-0.3 0.6-0.5 0.5-0.8 1-0.9 1.6-0.1 0.3-0.3 0.3-0.5 0.5-0.2 0.1-0.3 0.4-0.5 0.5-0.1 0.2-0.3 0.3-0.5 0.5v0.5c-0.4 0.4-0.7 0.8-0.5 1.4-0.2 0.1-0.4 0.2-0.9 0.4-0.5 0.5-1.2 1-1.6 1.7 0 0 0 0.1 0.1 0.3 0.2-0.1 0.4-0.3 0.6-0.4 0.4-0.1 0.7-0.1 1.2-0.2 0 0.1 0 0.3 0.1 0.4l-0.7 0.7c0.2 0.1 0.3 0.2 0.5 0.2 0.3 0.6-0.4 0.7-0.5 1.1 0 0.2 0.1 0.3 0.2 0.6 0 0.3-1.3 1.2-2 1.3-0.2 0.3-0.4 0.6-0.7 0.9v0.6c-0.2 0.4-0.5 0.5-0.6 1-0.1 0.3-0.1 0.7-0.2 1.1l-0.3 0.3v0.9c-0.4 0.4-0.8 0.8-1.3 1.1-0.8 0.4-1.3 1.1-1.7 1.9v0.3c-0.3 0.2-0.6 0.4-1 0.7h-1.2c0.1 0.3 0.1 0.6 0.2 0.9-0.3-0.1-0.7-0.2-1-0.2s-0.5 0.2-0.9 0.3c0 0.1 0 0.2 0.1 0.3 0 0.1 0.1 0.2 0.2 0.3l-0.3 0.3h-1.2l-0.4 0.4c-1-0.8-1.3-2.1-2.1-3l-0.6 0.6c-0.3-0.3-0.5-0.6-0.7-0.8-0.7-0.1-1.2-0.4-1.6-0.8-0.5-0.4-0.5-1.1-1-1.4v-0.8c-0.1-0.1-0.3-0.1-0.4-0.2 0.1-0.2 0.1-0.3 0.2-0.5l-0.5-0.5c-0.1-0.1-0.1-0.3-0.3-0.5 0.2 0.1 0.4 0.2 0.6 0.2-0.1-0.2-0.1-0.3-0.2-0.4-0.3-0.1-0.5-0.3-0.7-0.6 0.3-0.3 0.8 0 0.8-0.5-0.3-0.2-0.5-0.4-0.8-0.7 0-0.6-0.4-1-0.7-1.3-0.1-0.5-0.2-0.9-0.2-1.3v-1.3c0.1 0 0.2 0 0.3-0.1 0 0.2 0 0.4 0.1 0.8 0.1 0.1 0.3 0.2 0.6 0.4 0.1 0 0.3-0.2 0.3-0.3 0.1-0.5 0.2-1 0.3-1.6 0.9-0.2 0.8-1.1 1.1-1.8h1c-0.1-0.3-0.1-0.6-0.1-0.9 0.1 0 0.3-0.2 0.3-0.2 0.2-0.6 0.3-1 0.5-1.5 0.3-0.2 0.7-0.5 1.2-0.2-0.1 0.8-0.2 1.5-0.3 2.3 0 0.2 0.1 0.2 0.3 0.2v0.3c-0.2-0.1-0.3-0.2-0.6-0.2v0.8c-0.1 0-0.3 0-0.4 0.1v0.1c0.1 0 0.6-0.3 0.8-0.4-0.3 0.5-0.4 0.8-0.1 1.3 0.3-0.5 0.5-0.9 0.8-1.3-0.1-0.2-0.2-0.5-0.3-0.7h-0.2zm8 8c0.1-0.2 0.3-0.4 0.4-0.6l-0.2-0.2c-0.4 0.3-0.9 0.7-1.3 1 0.3 0.3 0.4 0.6 0.7 0.9 0.2-0.5 0.8-0.4 0.9-1-0.2-0.1-0.3-0.1-0.5-0.1z"/>
			<path d="m510.7 42.7c0.1 0.2 0.2 0.3 0.2 0.5-0.3 0-0.3 0-0.2-0.5z"/>
		</g>
	</g>
</g>
<g id="silhouette_x5F_1">
	<g id="silhouette_3_">
		<path d="m481.3 65.6c0.4 0.7 0.9 1.3 1.1 1.9 0.6 2.1 1 4.3 0.7 6.5-1.2 8.9-3.7 17.3-9.6 24.3-2.1 2.5-4.2 5.1-6.3 7.6-0.3 0.4-0.6 0.7-1 1-0.2 0.2-0.7 0.2-0.8 0-0.2-0.2-0.3-0.6-0.2-0.9 0.2-0.4 0.5-0.7 0.8-1 2.6-3.3 5.3-6.5 7.9-9.7 2.8-3.5 4.5-7.4 5.7-11.7 0.8-2.8 1.4-5.7 2.1-8.6 0.5-2.3 0.3-4.7-0.2-6.9-0.3-1.3-0.6-1.4-1.8-1-5.2 1.8-10.2 4.1-14.9 7-3.7 2.3-7.2 4.8-10.4 7.7-0.8 0.8-1.5 1.6-2.2 2.4-0.1 0.2-0.4 0.3-0.6 0.4 0-0.2 0-0.5 0.1-0.7 0.7-1.5 1.7-2.7 3-3.8 7.7-6.6 16.3-11.6 26.1-14.5 0.1 0 0.2-0.1 0.2-0.2 0 0.2 0.1 0.2 0.3 0.2z"/>
		<path d="m400.4 64.8c8.4 2 15.9 5.8 22.2 11.7 1.9 1.8 3.6 3.9 5.3 5.9 0.2 0.3 0.4 0.6 0.5 0.8v0.4c-0.1 0-0.3 0-0.4-0.1l-0.3-0.3c-4.3-5.8-10-9.8-16.2-13.3-3.9-2.2-8.3-3.3-12.6-4.5-1-0.3-1.6 0-2.2 0.8-1.1 1.4-1.6 3-1.6 4.8 0.1 4.6 1.1 8.9 4.1 12.7 1.4 1.8 2.7 3.8 3.8 5.8 2.5 4.2 5.4 7.9 9.4 10.8 0.9 0.7 2 1.3 3 1.9 0.4 0.2 0.8 0.4 1 0.7 0.3 0.3 0.1 0.7-0.3 0.7-0.5-0.1-1-0.3-1.5-0.5-3.4-1.7-6.2-4.1-8.5-7.1-1.8-2.3-3.4-4.9-5-7.4-1-1.6-2-3.2-3.1-4.6-2.8-3.8-3.8-8.1-3.9-12.6-0.1-2 0.4-3.8 1.7-5.5 1-1.3 2.1-1.9 3.7-1.4 0.3 0.2 0.5 0.2 0.9 0.3z"/>
		<path d="m463 109.6c-0.1 0.4-0.1 0.8-0.3 1.6-0.4 1.9-1 4.6-2.5 6-1.1 1.1-2.2 2.1-3.3 3.1-1.3 1.1-2.9 1.9-4.3 2.9-1.8 1.2-3.7 1.9-5.8 2.6-0.9 0.3-1.8 0.6-2.6 0.9-1.4 0.5-2.5 0.4-3.9 0.2-1.3-0.2-2.5-0.6-3.7-1.1-2.4-0.8-4.7-1.9-7-3-1.1-0.5-2.1-1-3.1-1.7-1.1-0.7-2-1.7-2.9-2.6-0.8-0.8-1.7-1.4-2.5-2.3-1.9-2.1-3.2-4.6-4.2-7.2-0.1-0.2 0-0.5 0-0.8 0.2 0.2 0.5 0.3 0.7 0.6 1.1 1.8 2.1 3.6 3.3 5.3 0.4 0.6 0.9 0.9 1.3 1.4 0.6 0.6 1.1 1.3 1.6 1.8 1.2 1.2 2.5 2.2 3.8 3.2 0.5 0.3 0.9 0.7 1.5 1 0.7 0.4 1.4 0.7 2.1 0.9 2.4 0.9 4.8 2 7.4 2.6 2.7 0.6 5.4 0 8-0.7 1-0.3 1.9-0.5 2.9-0.9 2.8-1.1 5.1-3 7.4-4.9 1.1-0.9 2.6-1.9 3.3-3.2s1-2.9 1.6-4.2c0.3-0.6 0.5-1.2 0.8-1.8 0-0.1 0.2-0.1 0.3-0.2 0.1 0.2 0.1 0.3 0.1 0.5z"/>
		<path d="m441.3 122c-1.3-0.1-2.4-0.6-3.6-1.1-1.1-0.4-2.3-0.2-3.4-0.6-1-0.3-1.6-1.2-2.2-2s-0.5-1.7-0.1-2.6c0.1-0.2 0.5-0.4 0.7-0.4 0.4 0 0.4 0.3 0.3 0.7-0.5 2.3 0.4 3.7 2.8 3.9 0.9 0.1 1.9 0.1 2.8 0.1s1.9 0.1 2.7-0.4c-0.5-0.3-1-0.7-1.6-1-0.7-0.5-1.1-1.1-0.9-1.9 0.3-1.2 1.8-2.2 3.2-2.1 1.1 0.1 1.9 0.6 2.5 1.4 0.6 0.7 0.5 1.6-0.1 2.2-0.2 0.3-1.8 1.1-1.7 1.4 0.1 0.7 0.8 0.4 1.3 0.5 1.1 0.1 2.1-0.1 3.1-0.4 0.5-0.2 0.9-0.4 1.4-0.5 0.9-0.3 2-0.7 2.1-1.7 0-0.5-0.8-1.5-0.5-2 0.2-0.3 0.7-0.1 0.9 0.2 0.4 0.4 0.3 1.2 0.3 1.8-0.1 1.1-1.1 1.8-2.1 2.3-1.2 0.6-2.5 0.8-3.7 1.4s-2.5 1-3.9 1.1c0-0.3-0.2-0.3-0.3-0.3z"/>
		<path d="m430.7 108.2c-0.1 0.2 0 0.4 0.4 0.4 0.3 0.1 1.3-0.4 1.1 0.3-0.1 0.4-0.7 0.3-1 0.4-0.8 0.2-1.6 0.5-2.5 0.5-2.6 0-3.7-0.4-5-3.6-0.4-0.9-0.2-1.2 0.7-1.7 0.3-0.2 0.6-0.3 0.9-0.5 2-1.6 4-1.2 6.1 0.4 0.5 0.4 1 1 1.4 1.6 0.1 0.2 0.3 0.8 0 0.8-0.3 0.1-0.8-0.4-1-0.6s-0.4-0.3-0.6-0.5c-0.1-0.1-0.1-0.3-0.3-0.3s-0.1 0.3-0.1 0.5 0.1 0.3 0.2 0.4v0.7c0 0.6-0.2 0.9-0.3 1.2z"/>
		<path d="m455.1 103.3c0.8 0.1 1.6 0.3 2.1 0.8 0.7 0.6 0.2 1.6-0.1 2.3-1 2.1-2.5 3.2-4.7 3.3-0.4 0.1-1.9 0.2-2-0.5-0.3-0.8 1.2-0.6 1.6-0.6 0.1 0 0.3-0.1 0.3-0.2 0-0.2-0.1-0.3-0.3-0.3-0.3-0.1-0.6-0.3-0.7-0.5-0.1-0.3-0.2-0.5-0.2-0.8s0.2-0.7-0.3-0.8c-0.3 0-0.6 0.3-0.8 0.6-0.1 0.2-0.2 0.7-0.5 0.6-0.4-0.1-0.3-0.7-0.2-0.9 0.4-1.6 2.5-3 4.4-2.9 0.4-0.2 0.9-0.2 1.4-0.1z"/>
		<path d="m448.5 85.5v0.2c-0.1 0.2-0.6 0.3-0.8 0.3-0.4 0.1-0.8-0.1-1.1-0.1-4.2-1-8.4-0.8-12.5 0.4-1.1 0.3-2.3 0.3-3.4 0.4-0.1 0-0.3-0.1-0.5-0.2 0.1-0.2 0.1-0.4 0.3-0.4 0.6-0.3 1.2-0.6 1.9-0.8 2.2-0.6 4.4-1.3 6.6-1.7s4.4-0.2 6.6 0.5c0.7 0.2 1.5 0.3 2.2 0.6 0.2 0.1 0.7 0.4 0.7 0.8z"/>
	</g>
</g>
</svg>
