<?xml version="1.0" encoding="UTF-8" standalone="no"?>
<!-- Created with Inkscape (http://www.inkscape.org/) -->

<svg
   xmlns:dc="http://purl.org/dc/elements/1.1/"
   xmlns:cc="http://creativecommons.org/ns#"
   xmlns:rdf="http://www.w3.org/1999/02/22-rdf-syntax-ns#"
   xmlns:svg="http://www.w3.org/2000/svg"
   xmlns="http://www.w3.org/2000/svg"
   xmlns:sodipodi="http://sodipodi.sourceforge.net/DTD/sodipodi-0.dtd"
   xmlns:inkscape="http://www.inkscape.org/namespaces/inkscape"
   width="297mm"
   height="210mm"
   viewBox="0 0 297 210"
   id="svg3402"
   version="1.1"
   inkscape:version="0.91 r13725"
   sodipodi:docname="logo_small.svg">
  <defs
     id="defs3404" />
  <sodipodi:namedview
     inkscape:document-units="mm"
     pagecolor="#ffffff"
     bordercolor="#666666"
     borderopacity="1.0"
     inkscape:pageopacity="0.0"
     inkscape:pageshadow="2"
     inkscape:zoom="0.40309125"
     inkscape:cx="1012.7516"
     inkscape:cy="144.99381"
     inkscape:current-layer="g9670"
     id="namedview3406"
     showgrid="false"
     inkscape:window-width="1916"
     inkscape:window-height="1037"
     inkscape:window-x="0"
     inkscape:window-y="20"
     inkscape:window-maximized="0"
     showguides="true">
    <inkscape:grid
       enabled="true"
       visible="true"
       snapvisiblegridlinesonly="true"
       originx="0"
       originy="0"
       empspacing="5"
       spacingx="1.6933334"
       spacingy="1.6933333"
       dotted="false"
       color="#3f3fff"
       opacity="0"
       empcolor="#3f3fff"
       empopacity="0.7372549"
       type="xygrid"
       id="grid3419" />
  </sodipodi:namedview>
  <metadata
     id="metadata3408">
    <rdf:RDF>
      <cc:Work
         rdf:about="">
        <dc:format>image/svg+xml</dc:format>
        <dc:type
           rdf:resource="http://purl.org/dc/dcmitype/StillImage" />
        <dc:title></dc:title>
      </cc:Work>
    </rdf:RDF>
  </metadata>
  <g
     inkscape:groupmode="layer"
     id="layer2"
     inkscape:label="background"
     style="display:none">
    <path
       style="display:inline;fill:#faebd7;fill-opacity:0.94117647;stroke:none"
       inkscape:connector-curvature="0"
       d="M 225.56816,49.764646 155.17207,8.9847708 c -3.88812,-2.2523466 -8.71258,-2.2441436 -12.59173,0.02546 L 72.347637,50.069884 c -3.882274,2.271705 -6.284886,6.48582 -6.274251,11.00485 l 0.15854,81.848356 c 0.01003,4.51673 2.432714,8.72119 6.320828,10.97353 l 70.396266,40.77987 c 3.88811,2.25237 8.71257,2.24415 12.58983,-0.0189 l 70.23755,-41.06846 c 3.87831,-2.26813 6.28008,-6.48079 6.27424,-11.00484 L 231.8871,60.744771 c -0.009,-4.521959 -2.43232,-8.728754 -6.31894,-10.980239 z"
       id="path4710" />
  </g>
  <g
     style="display:none"
     id="g4226"
     inkscape:groupmode="layer"
     inkscape:label="Icon_mini">
    <path
       sodipodi:nodetypes="ccccccccc"
       inkscape:connector-curvature="0"
       id="path4228"
       d="m 146.84197,66.763453 36.28819,14.451068 2.05963,14.451069 -9.31727,14.45101 -29.03055,14.45099 -29.03051,-14.45099 -9.3172,-14.45101 2.05962,-14.451068 z"
       style="opacity:1;fill:none;fill-rule:evenodd;stroke:#000000;stroke-width:3.02385449;stroke-linecap:butt;stroke-linejoin:miter;stroke-miterlimit:3.45890427;stroke-dasharray:none;stroke-opacity:1" />
    <path
       sodipodi:nodetypes="cccccc"
       inkscape:connector-curvature="0"
       id="path4230"
       d="m 183.13016,81.214521 14.51526,-7.225534 7.25764,-28.902133 -36.28818,14.451065 -1.85367,15.066225 z"
       style="opacity:1;fill:none;fill-rule:evenodd;stroke:#000000;stroke-width:3.02385449;stroke-linecap:butt;stroke-linejoin:miter;stroke-miterlimit:3.45890427;stroke-dasharray:none;stroke-opacity:1" />
    <path
       sodipodi:nodetypes="cccccc"
       inkscape:connector-curvature="0"
       id="path4232"
       d="M 110.55388,81.214521 96.038679,73.988987 88.781043,45.086854 125.06906,59.537919 128.15851,74.1816 Z"
       style="opacity:1;fill:none;fill-rule:evenodd;stroke:#000000;stroke-width:3.02385449;stroke-linecap:butt;stroke-linejoin:miter;stroke-miterlimit:3.45890427;stroke-dasharray:none;stroke-opacity:1" />
    <path
       sodipodi:nodetypes="ccccc"
       inkscape:connector-curvature="0"
       id="path4234"
       d="M 146.84197,66.763453 168.08443,81.32061 146.94806,122.94783 125.59951,81.426701 Z"
       style="opacity:1;fill:none;fill-rule:evenodd;stroke:#000000;stroke-width:3.02385449;stroke-linecap:butt;stroke-linejoin:miter;stroke-miterlimit:3.45890427;stroke-dasharray:none;stroke-opacity:1" />
    <path
       inkscape:connector-curvature="0"
       id="path4236"
       d="m 168.61488,81.214521 7.25763,28.902079 z"
       style="opacity:1;fill:none;fill-rule:evenodd;stroke:#000000;stroke-width:3.02385449;stroke-linecap:butt;stroke-linejoin:miter;stroke-miterlimit:3.45890427;stroke-dasharray:none;stroke-opacity:1" />
    <path
       inkscape:connector-curvature="0"
       id="path4242"
       d="m 125.06906,81.214521 -7.2576,28.902079 z"
       style="opacity:1;fill:none;fill-rule:evenodd;stroke:#000000;stroke-width:3.02385449;stroke-linecap:butt;stroke-linejoin:miter;stroke-miterlimit:3.45890427;stroke-dasharray:none;stroke-opacity:1" />
    <path
       inkscape:connector-curvature="0"
       id="path4244"
       d="m 126.12995,81.426701 42.48493,-0.21218 z"
       style="opacity:1;fill:none;fill-rule:evenodd;stroke:#000000;stroke-width:3.02385449;stroke-linecap:butt;stroke-linejoin:miter;stroke-miterlimit:3.45890427;stroke-dasharray:none;stroke-opacity:1"
       sodipodi:nodetypes="ccc" />
    <path
       sodipodi:nodetypes="ccccc"
       inkscape:connector-curvature="0"
       id="path4250"
       d="M 96.038679,73.988987 102.49529,51.314913 127.97212,73.988987 102.36535,51.25023 Z"
       style="opacity:1;fill:none;fill-rule:evenodd;stroke:#000000;stroke-width:3.02385449;stroke-linecap:butt;stroke-linejoin:miter;stroke-miterlimit:3.45890427;stroke-dasharray:none;stroke-opacity:1" />
    <path
       sodipodi:nodetypes="ccccc"
       inkscape:connector-curvature="0"
       id="path4252"
       d="M 197.64542,73.988987 190.59998,51.981218 166.83566,74.568963 190.59998,52.087308 Z"
       style="opacity:1;fill:none;fill-rule:evenodd;stroke:#000000;stroke-width:3.02385449;stroke-linecap:butt;stroke-linejoin:miter;stroke-miterlimit:3.45890427;stroke-dasharray:none;stroke-opacity:1" />
    <path
       sodipodi:nodetypes="cccc"
       inkscape:connector-curvature="0"
       id="path4254"
       d="m 150.78309,122.48215 -1.68124,-2.20414 -4.47382,0 -1.6353,2.29561"
       style="opacity:1;fill:none;fill-rule:evenodd;stroke:#000000;stroke-width:3.02385449;stroke-linecap:butt;stroke-linejoin:miter;stroke-miterlimit:3.45890427;stroke-dasharray:none;stroke-opacity:1" />
    <path
       inkscape:connector-curvature="0"
       id="path4258"
       d="m 147.184,124.22124 c 0,-0.0621 1.86441,-3.72645 1.89095,-3.71653 0.0388,0.0145 1.5602,2.01123 1.54372,2.02593 -0.0453,0.0404 -3.43467,1.70871 -3.43467,1.6906 z"
       style="opacity:1;fill:#000000;fill-opacity:1;stroke:#000000;stroke-width:3.02385449;stroke-linecap:square;stroke-linejoin:miter;stroke-miterlimit:3.45890427;stroke-dasharray:none;stroke-opacity:1" />
    <path
       inkscape:connector-curvature="0"
       id="path4262"
       d="m 165.22789,107.7102 a 2.1772901,1.4451068 0 0 1 -2.17731,1.44509 2.1772901,1.4451068 0 0 1 -2.17728,-1.44509 2.1772901,1.4451068 0 0 1 2.17728,-1.4451 2.1772901,1.4451068 0 0 1 2.17731,1.4451 z"
       style="opacity:1;fill:#000000;fill-opacity:1;stroke:#000000;stroke-width:3.02385449;stroke-linecap:square;stroke-linejoin:miter;stroke-miterlimit:3.45890427;stroke-dasharray:none;stroke-dashoffset:0;stroke-opacity:1" />
    <path
       inkscape:connector-curvature="0"
       id="path4264"
       d="m 132.9748,107.67109 a 2.1772901,1.4451069 0 0 1 -2.17728,1.44509 2.1772901,1.4451069 0 0 1 -2.1773,-1.44509 2.1772901,1.4451069 0 0 1 2.1773,-1.44509 2.1772901,1.4451069 0 0 1 2.17728,1.44509 z"
       style="opacity:1;fill:#000000;fill-opacity:1;stroke:#000000;stroke-width:3.02385449;stroke-linecap:square;stroke-linejoin:miter;stroke-miterlimit:3.45890427;stroke-dasharray:none;stroke-dashoffset:0;stroke-opacity:1" />
    <path
       sodipodi:nodetypes="cccccccccc"
       inkscape:connector-curvature="0"
       id="path4266"
       d="m 170.70136,112.71895 30.32146,28.51888 -3.69922,24.75583 -21.9517,9.87638 -36.56667,-0.23401 -10.04262,-13.75527 5.68358,-7.34857 -7.04839,-39.50985 19.22016,9.79422 z"
       style="fill:none;fill-rule:evenodd;stroke:#000000;stroke-width:3.02385449;stroke-linecap:butt;stroke-linejoin:miter;stroke-miterlimit:3.45890427;stroke-dasharray:none;stroke-opacity:1" />
    <path
       sodipodi:nodetypes="cc"
       inkscape:connector-curvature="0"
       id="path4268"
       d="m 134.47942,154.37651 66.24647,-13.27732"
       style="fill:none;fill-rule:evenodd;stroke:#000000;stroke-width:3.02385449;stroke-linecap:butt;stroke-linejoin:miter;stroke-miterlimit:3.45890427;stroke-dasharray:none;stroke-opacity:1" />
    <path
       inkscape:connector-curvature="0"
       id="path4272"
       d="m 157.48596,119.60081 43.54351,21.77174"
       style="fill:none;fill-rule:evenodd;stroke:#000000;stroke-width:3.02385449;stroke-linecap:butt;stroke-linejoin:miter;stroke-miterlimit:3.45890427;stroke-dasharray:none;stroke-opacity:1" />
    <path
       sodipodi:nodetypes="cc"
       inkscape:connector-curvature="0"
       id="path4274"
       d="m 144.9578,152.42739 7.25363,23.29925"
       style="fill:none;fill-rule:evenodd;stroke:#000000;stroke-width:3.02385449;stroke-linecap:butt;stroke-linejoin:miter;stroke-miterlimit:3.45890427;stroke-dasharray:none;stroke-opacity:1" />
    <path
       style="fill:none;fill-rule:evenodd;stroke:#000000;stroke-width:3.02385449;stroke-linecap:butt;stroke-linejoin:miter;stroke-miterlimit:4;stroke-dasharray:none;stroke-opacity:1"
       d="m 158.6036,119.86717 -23.92448,34.68476"
       id="path4276"
       inkscape:connector-curvature="0"
       sodipodi:nodetypes="cc" />
  </g>
  <g
     inkscape:label="favicon"
     inkscape:groupmode="layer"
     id="g9670"
     style="display:inline">
    <path
       style="opacity:1;fill:none;fill-rule:evenodd;stroke:#000000;stroke-width:4.93888903;stroke-linecap:butt;stroke-linejoin:miter;stroke-miterlimit:3.45890427;stroke-dasharray:none;stroke-opacity:1"
       d="m 146.84197,66.763453 36.28819,14.451068 2.05963,14.451069 -9.31727,14.45101 -29.03055,14.45099 -29.03051,-14.45099 -9.3172,-14.45101 2.05962,-14.451068 z"
       id="path9672"
       inkscape:connector-curvature="0"
       sodipodi:nodetypes="ccccccccc" />
    <path
       style="opacity:1;fill:none;fill-rule:evenodd;stroke:#000000;stroke-width:4.93888903;stroke-linecap:butt;stroke-linejoin:miter;stroke-miterlimit:3.45890427;stroke-dasharray:none;stroke-opacity:1"
       d="m 183.13016,81.214521 14.51526,-7.225534 7.25764,-28.902133 -36.28818,14.451065 -1.85367,15.066225 z"
       id="path9674"
       inkscape:connector-curvature="0"
       sodipodi:nodetypes="cccccc" />
    <path
       style="opacity:1;fill:none;fill-rule:evenodd;stroke:#000000;stroke-width:4.93888903;stroke-linecap:butt;stroke-linejoin:miter;stroke-miterlimit:3.45890427;stroke-dasharray:none;stroke-opacity:1"
       d="M 110.55388,81.214521 96.038679,73.988987 88.781043,45.086854 125.06906,59.537919 128.15851,74.1816 Z"
       id="path9676"
       inkscape:connector-curvature="0"
       sodipodi:nodetypes="cccccc" />
    <path
       style="opacity:1;fill:none;fill-rule:evenodd;stroke:#000000;stroke-width:4.93888903;stroke-linecap:butt;stroke-linejoin:miter;stroke-miterlimit:3.45890427;stroke-dasharray:none;stroke-opacity:1"
       d="M 146.84197,66.763453 170.3599,76.594633 146.94806,121.4626 121.04857,76.700724 Z"
       id="path9678"
       inkscape:connector-curvature="0"
       sodipodi:nodetypes="ccccc" />
    <path
       style="opacity:1;fill:none;fill-rule:evenodd;stroke:#000000;stroke-width:4.93888903;stroke-linecap:butt;stroke-linejoin:miter;stroke-miterlimit:3.45890427;stroke-dasharray:none;stroke-opacity:1"
       d="m 150.78309,122.48215 -1.68124,-2.20414 -4.47382,0 -1.6353,2.29561"
       id="path9690"
       inkscape:connector-curvature="0"
       sodipodi:nodetypes="cccc" />
    <path
       style="opacity:1;fill:#000000;fill-opacity:1;stroke:#000000;stroke-width:4.93888903;stroke-linecap:square;stroke-linejoin:miter;stroke-miterlimit:3.45890427;stroke-dasharray:none;stroke-opacity:1"
       d="m 147.184,124.22124 c 0,-0.0621 1.86441,-3.72645 1.89095,-3.71653 0.0388,0.0145 1.5602,2.01123 1.54372,2.02593 -0.0453,0.0404 -3.43467,1.70871 -3.43467,1.6906 z"
       id="path9692"
       inkscape:connector-curvature="0" />
    <path
       style="opacity:1;fill:#000000;fill-opacity:1;stroke:#000000;stroke-width:4.93888903;stroke-linecap:square;stroke-linejoin:miter;stroke-miterlimit:3.45890427;stroke-dasharray:none;stroke-dashoffset:0;stroke-opacity:1"
       d="m 129.51977,104.74008 a 3.0886193,2.0499726 0 0 1 -3.08861,2.04995 3.0886193,2.0499726 0 0 1 -3.08863,-2.04995 3.0886193,2.0499726 0 0 1 3.08863,-2.04995 3.0886193,2.0499726 0 0 1 3.08861,2.04995 z"
       id="path9696"
       inkscape:connector-curvature="0" />
    <path
       style="fill:none;fill-rule:evenodd;stroke:#000000;stroke-width:4.93888903;stroke-linecap:butt;stroke-linejoin:miter;stroke-miterlimit:3.45890427;stroke-dasharray:none;stroke-opacity:1"
       d="m 170.70136,112.71895 30.32146,28.51888 -3.69922,24.75583 -21.9517,9.87638 -36.56667,-0.23401 -10.04262,-13.75527 5.68358,-7.34857 -7.04839,-39.50985 18.97262,10.04176 z"
       id="path9698"
       inkscape:connector-curvature="0"
       sodipodi:nodetypes="cccccccccc" />
    <path
       style="fill:none;fill-rule:evenodd;stroke:#000000;stroke-width:4.93888903;stroke-linecap:butt;stroke-linejoin:miter;stroke-miterlimit:3.45890427;stroke-dasharray:none;stroke-opacity:1"
       d="m 134.47942,154.37651 66.24647,-13.27732"
       id="path9700"
       inkscape:connector-curvature="0"
       sodipodi:nodetypes="cc" />
    <path
       style="fill:none;fill-rule:evenodd;stroke:#000000;stroke-width:4.93888903;stroke-linecap:butt;stroke-linejoin:miter;stroke-miterlimit:3.45890427;stroke-dasharray:none;stroke-opacity:1"
       d="m 144.9578,152.42739 7.25363,23.29925"
       id="path9704"
       inkscape:connector-curvature="0"
       sodipodi:nodetypes="cc" />
    <path
       style="display:inline;opacity:1;fill:#000000;fill-opacity:1;stroke:#000000;stroke-width:4.93888903;stroke-linecap:square;stroke-linejoin:miter;stroke-miterlimit:3.45890427;stroke-dasharray:none;stroke-dashoffset:0;stroke-opacity:1"
       d="m 169.20455,105.2667 a 3.0886194,2.0499726 0 0 1 -3.08861,2.04995 3.0886194,2.0499726 0 0 1 -3.08863,-2.04995 3.0886194,2.0499726 0 0 1 3.08863,-2.04995 3.0886194,2.0499726 0 0 1 3.08861,2.04995 z"
       id="path9696-2"
       inkscape:connector-curvature="0" />
    <ellipse
       style="opacity:1;fill:#000000;fill-opacity:1;stroke:none;stroke-width:17.5;stroke-linecap:square;stroke-linejoin:miter;stroke-miterlimit:3.45890427;stroke-dasharray:none;stroke-dashoffset:0;stroke-opacity:1"
       id="path10834"
       cx="146.54282"
       cy="119.06902"
       rx="9.158926"
       ry="5.0745401" />
  </g>
  <g
     inkscape:groupmode="layer"
     id="layer3"
     inkscape:label="combs"
     style="display:none">
    <g
       transform="matrix(0.64811929,0.37096267,-0.37096267,0.64811929,131.9401,-101.88678)"
       id="g5268"
       style="fill:#bba691;fill-opacity:0.94117647;stroke:none;stroke-opacity:1">
      <path
         inkscape:connector-curvature="0"
         d="m 180.034,178.586 -48.361,0 c -2.67,0 -5.16,1.439 -6.495,3.75 l -24.181,41.885 c -1.334,2.311 -1.334,5.186 0,7.498 l 24.181,41.883 c 1.335,2.313 3.825,3.75 6.495,3.75 l 48.361,0 c 2.67,0 5.158,-1.438 6.494,-3.75 l 24.179,-41.883 c 1.335,-2.313 1.335,-5.188 0,-7.498 l -24.179,-41.885 c -1.336,-2.31 -3.824,-3.75 -6.494,-3.75 z"
         id="path5272"
         style="fill:#c19c78;fill-opacity:1;stroke:none;stroke-opacity:1" />
      <path
         inkscape:connector-curvature="0"
         d="m 183.29386,289.75572 c -1.14833,-1.9898 -3.28683,-3.22323 -5.58178,-3.22323 l -41.56759,0 c -2.29494,0 -4.43517,1.23343 -5.58263,3.22323 l -20.78424,35.99615 c -1.1466,1.98895 -1.1466,4.45923 0,6.44646 l 20.78424,35.99786 c 1.14746,1.98808 3.28769,3.22323 5.58263,3.22323 l 41.56759,0 c 2.29495,0 4.43345,-1.23601 5.58178,-3.22323 l 20.78251,-35.99786 c 1.14747,-1.98809 1.14747,-4.45751 0,-6.44646 l -20.78251,-35.99615 z"
         id="path5274"
         style="fill:#c19c78;fill-opacity:0.65269458;stroke:none;stroke-opacity:1" />
      <path
         inkscape:connector-curvature="0"
         d="M 113.72347,275.15865 92.940048,239.1625 c -1.14747,-1.98895 -3.286838,-3.22323 -5.581771,-3.22323 l -41.568465,0 c -2.295796,0 -4.43516,1.23428 -5.583489,3.22323 l -20.783371,35.99615 c -1.14661,1.9898 -1.14661,4.45923 0,6.44644 l 20.783371,35.99787 c 1.148329,1.98809 3.287693,3.22323 5.583489,3.22323 l 41.567607,0 c 2.294933,0 4.434299,-1.236 5.581769,-3.22323 l 20.784282,-35.99787 c 1.14748,-1.98721 1.14748,-4.45664 0,-6.44644 z"
         id="path5276"
         style="fill:#c19c78;fill-opacity:0.65269458;stroke:none;stroke-opacity:1" />
      <path
         inkscape:connector-curvature="0"
         d="m 177.8858,84.702488 -41.56759,0 c -2.29494,0 -4.43517,1.234282 -5.58263,3.223218 l -20.78424,35.996104 c -1.1466,1.98894 -1.1466,4.45664 0,6.44818 l 20.78424,35.99613 c 1.14746,1.98895 3.28769,3.22323 5.58263,3.22323 l 41.56759,0 c 2.29495,0 4.43345,-1.23428 5.58178,-3.22323 l 20.78251,-35.99613 c 1.14747,-1.99068 1.14747,-4.45924 0,-6.44818 L 183.46758,87.925706 c -1.14833,-1.988936 -3.28683,-3.223218 -5.58178,-3.223218 z"
         id="path5278"
         style="fill:#c19c78;fill-opacity:0.65269458;stroke:none;stroke-opacity:1" />
      <path
         inkscape:connector-curvature="0"
         d="m 223.35104,219.8711 41.56675,0 c 2.29494,0 4.43516,-1.23255 5.58263,-3.22322 l 20.78423,-35.99615 c 1.14661,-1.98894 1.14661,-4.45923 0,-6.44645 l -20.78423,-36.00131 c -1.14747,-1.98465 -3.28769,-3.22151 -5.58263,-3.22151 l -41.56675,0 c -2.29579,0 -4.43429,1.23772 -5.58262,3.22151 l -20.78166,36.00131 c -1.14832,1.98808 -1.14832,4.45751 0,6.44645 l 20.78166,35.99615 c 1.14833,1.99067 3.28769,3.22322 5.58262,3.22322 z"
         id="path5280"
         style="fill:#c19c78;fill-opacity:0.65269458;stroke:none;stroke-opacity:1" />
      <path
         inkscape:connector-curvature="0"
         d="m 291.19865,274.07513 -20.78423,-35.99615 c -1.14747,-1.98895 -3.28769,-3.22323 -5.58263,-3.22323 l -41.56674,0 c -2.2958,0 -4.4343,1.23428 -5.58263,3.22323 l -20.78166,35.99615 c -1.14832,1.9898 -1.14832,4.45923 0,6.44644 l 20.78166,35.99787 c 1.14833,1.98809 3.28683,3.22323 5.58263,3.22323 l 41.56674,0 c 2.29494,0 4.43516,-1.236 5.58263,-3.22323 l 20.78423,-35.99787 c 1.14661,-1.98721 1.14661,-4.45664 0,-6.44644 z"
         id="path5286"
         style="fill:#c19c78;fill-opacity:0.65269458;stroke:none;stroke-opacity:1" />
    </g>
    <path
       inkscape:connector-curvature="0"
       d="m 141.55686,55.252608 -0.1168,-31.041143 c -0.006,-1.714187 -0.93511,-3.308649 -2.42249,-4.159987 L 112.07745,4.6317511 c -1.48796,-0.8516554 -3.33249,-0.8438852 -4.81393,0.018087 L 80.440681,20.27155 c -1.481758,0.862531 -2.398778,2.464684 -2.391391,4.178075 l 0.114486,31.041296 c 0.0074,1.713406 0.934563,3.308356 2.422512,4.160015 l 26.940192,15.419821 c 1.48739,0.851346 3.33335,0.843654 4.81393,-0.01812 L 139.16548,59.43071 c 1.48,-0.862063 2.39734,-2.464776 2.39138,-4.178102 z"
       id="path5288-9"
       style="fill:#c19c78;fill-opacity:0.65269458;stroke:none;stroke-opacity:1" />
    <path
       inkscape:connector-curvature="0"
       d="m 87.03823,80.864061 c -2.532342,0 -4.591737,2.059393 -4.591737,4.591735 0,0.792075 0.20126,1.537469 0.555599,2.188728 l -7.522032,7.522041 c -1.036967,-0.80739 -2.334897,-1.292579 -3.747622,-1.292579 -1.412723,0 -2.710654,0.485189 -3.748386,1.291813 l -5.869007,-5.869013 c 0.269376,-0.455351 0.433919,-0.978807 0.433919,-1.54512 0,-1.688229 -1.372926,-3.06116 -3.061155,-3.06116 -1.688231,0 -3.061159,1.372931 -3.061159,3.06116 0,1.688227 1.372928,3.061158 3.061159,3.061158 0.566313,0 1.089771,-0.164544 1.545118,-0.433919 l 5.869004,5.869016 c -0.806614,1.037753 -1.291809,2.335698 -1.291809,3.748441 0,1.412708 0.485195,2.710628 1.291809,3.747598 l -9.691626,9.69239 c -0.815798,-0.74004 -1.89409,-1.19538 -3.079523,-1.19538 -2.532339,0 -4.591731,2.05939 -4.591731,4.59174 0,2.53234 2.059392,4.59173 4.591731,4.59173 2.53234,0 4.591736,-2.05939 4.591736,-4.59173 0,-0.79208 -0.201259,-1.53747 -0.5556,-2.18873 l 9.817899,-9.81791 c 0.84641,0.65816 1.867306,1.09896 2.983098,1.23901 l 0,7.77535 c -2.168064,0.3658 -3.826447,2.25148 -3.826447,4.52285 0,2.53234 2.059393,4.59174 4.591736,4.59174 2.532344,0 4.591737,-2.0594 4.591737,-4.59174 0,-2.2706 -1.658382,-4.15628 -3.826446,-4.52285 l 0,-7.77535 c 1.115791,-0.14005 2.136687,-0.58085 2.983098,-1.23901 l 5.869003,5.86902 c -0.270134,0.45611 -0.434683,0.97956 -0.434683,1.54588 0,1.68822 1.372931,3.06116 3.061158,3.06116 1.688228,0 3.061159,-1.37294 3.061159,-3.06116 0,-1.68824 -1.372931,-3.06117 -3.061159,-3.06117 -0.566313,0 -1.08977,0.16456 -1.54512,0.43393 l -5.869004,-5.86901 c 0.806615,-1.03773 1.291808,-2.33565 1.291808,-3.748358 0,-1.412743 -0.485193,-2.710688 -1.291808,-3.747665 l 7.396523,-7.396544 c 0.815033,0.740033 1.893326,1.195381 3.07876,1.195381 2.532342,0 4.591735,-2.059394 4.591735,-4.591738 0,-2.532342 -2.059393,-4.591735 -4.591735,-4.591735 z m -29.081002,6.887605 c 0,-0.844115 0.686464,-1.530578 1.530581,-1.530578 0.844115,0 1.530577,0.686463 1.530577,1.530578 0,0.844113 -0.686462,1.530578 -1.530577,1.530578 -0.844117,0 -1.530581,-0.686465 -1.530581,-1.530578 z m -3.826446,32.142194 c -1.688227,0 -3.061155,-1.37293 -3.061155,-3.06115 0,-1.68823 1.372928,-3.06117 3.061155,-3.06117 1.688227,0 3.061158,1.37294 3.061158,3.06117 0,1.68822 -1.372931,3.06115 -3.061158,3.06115 z m 20.662814,-1.53058 c 0,1.68823 -1.372929,3.06116 -3.061158,3.06116 -1.688227,0 -3.061158,-1.37293 -3.061158,-3.06116 0,-1.68822 1.372931,-3.06115 3.061158,-3.06115 1.688229,0 3.061158,1.37293 3.061158,3.06115 z m -3.061158,-13.7752 c -2.532343,0 -4.591735,-2.0594 -4.591735,-4.591718 0,-2.532381 2.059392,-4.591799 4.591735,-4.591799 2.532342,0 4.591736,2.059418 4.591736,4.591799 0,2.532318 -2.059394,4.591718 -4.591736,4.591718 z m 13.775214,7.65289 c 0,0.84411 -0.686466,1.53057 -1.530581,1.53057 -0.844114,0 -1.530578,-0.68646 -1.530578,-1.53057 0,-0.84412 0.686464,-1.53058 1.530578,-1.53058 0.844115,0 1.530581,0.68646 1.530581,1.53058 z M 87.03823,88.516954 c -1.688229,0 -3.061159,-1.372927 -3.061159,-3.061158 0,-1.688228 1.37293,-3.061158 3.061159,-3.061158 1.688227,0 3.061157,1.37293 3.061157,3.061158 0,1.688231 -1.37293,3.061158 -3.061157,3.061158 z"
       id="path6572" />
    <g
       transform="matrix(0.08815046,0,0,0.08815046,88.01674,15.408356)"
       id="g7010"
       style="stroke-width:6.15018082;stroke-miterlimit:3.57653379;stroke-dasharray:none">
      <g
         id="g7012"
         style="stroke-width:6.15018082;stroke-miterlimit:3.57653379;stroke-dasharray:none">
        <g
           id="g7014"
           style="stroke-width:6.15018082;stroke-miterlimit:3.57653379;stroke-dasharray:none">
          <path
             inkscape:connector-curvature="0"
             d="m 21.787,265.97 c 0,-93.686 60.433,-175.027 147.281,-203.282 l -24.251,32.157 c -3.623,4.804 -2.666,11.634 2.137,15.256 1.964,1.482 4.267,2.197 6.551,2.197 3.302,0 6.565,-1.496 8.706,-4.335 l 42.916,-56.904 c 2.1,-2.786 2.741,-6.409 1.72,-9.744 -1.021,-3.336 -3.576,-5.982 -6.875,-7.117 L 132.573,11.022 c -5.69,-1.954 -11.888,1.07 -13.844,6.759 -1.955,5.69 1.07,11.888 6.759,13.844 L 158.973,43.14 C 119.022,56.908 83.098,81.381 55.498,114.075 19.71,156.465 0,210.409 0,265.97 c 0,27.261 4.631,54.007 13.765,79.493 1.595,4.45 5.786,7.221 10.255,7.221 1.22,0 2.461,-0.207 3.674,-0.642 5.664,-2.029 8.609,-8.266 6.58,-13.93 C 25.989,314.991 21.787,290.719 21.787,265.97 Z"
             id="path7016"
             style="stroke-width:7.07270765;stroke-miterlimit:3.57653379;stroke-dasharray:none" />
          <path
             inkscape:connector-curvature="0"
             d="m 414.025,402.991 c -4.588,-3.893 -11.461,-3.332 -15.356,1.255 -40.749,48.005 -100.185,75.538 -163.068,75.538 -53.27,0 -104.061,-19.763 -143.119,-54.987 l 40.061,4.936 c 5.965,0.74 11.408,-3.508 12.143,-9.48 0.735,-5.971 -3.509,-11.408 -9.48,-12.143 l -70.739,-8.715 c -3.46,-0.426 -6.92,0.831 -9.299,3.383 -2.379,2.551 -3.392,6.087 -2.726,9.512 l 13.628,69.958 c 1.013,5.202 5.572,8.813 10.681,8.813 0.691,0 1.391,-0.066 2.095,-0.204 5.905,-1.15 9.76,-6.871 8.609,-12.776 l -6.743,-34.615 c 42.647,37.25 97.454,58.105 154.886,58.105 69.292,0 134.783,-30.334 179.679,-83.226 3.898,-4.587 3.334,-11.462 -1.252,-15.354 z"
             id="path7018"
             style="stroke-width:6.15018082;stroke-miterlimit:3.57653379;stroke-dasharray:none" />
          <path
             inkscape:connector-curvature="0"
             d="m 509.325,288.789 c -3.949,-4.538 -10.829,-5.017 -15.369,-1.069 l -27.12,23.593 c 2.903,-14.863 4.366,-30.022 4.366,-45.343 0,-55.56 -19.71,-109.503 -55.497,-151.896 -35.361,-41.885 -84.382,-70.28 -138.033,-79.955 -5.917,-1.072 -11.586,2.866 -12.653,8.788 -1.068,5.921 2.866,11.586 8.787,12.654 101.755,18.349 175.609,106.839 175.609,210.408 0,14.664 -1.487,29.157 -4.413,43.346 l -15.46,-36.465 c -2.349,-5.539 -8.745,-8.124 -14.281,-5.777 -5.539,2.349 -8.126,8.742 -5.778,14.281 l 27.821,65.619 c 1.362,3.213 4.18,5.578 7.579,6.362 0.813,0.187 1.634,0.279 2.451,0.279 2.6,0 5.147,-0.932 7.149,-2.675 l 53.772,-46.781 c 4.54,-3.95 5.018,-10.83 1.07,-15.369 z"
             id="path7020"
             style="stroke-width:6.15018082;stroke-miterlimit:3.57653379;stroke-dasharray:none" />
          <path
             inkscape:connector-curvature="0"
             d="m 188.028,130.89 c -1.519,-0.137 -3.045,-0.207 -4.574,-0.207 -21.752,0 -40.793,14.02 -47.564,34.164 -17.981,7.019 -30.042,24.311 -30.042,44.123 0,11.226 4.001,22.037 11.151,30.53 -0.801,4.182 -1.206,8.44 -1.206,12.72 0,36.454 29.03,66.112 64.714,66.112 6.157,0 12.253,-0.886 18.119,-2.63 0.11,-0.033 0.222,-0.059 0.333,-0.092 3.337,35.637 3.05,71.669 -0.877,107.238 -0.34,3.078 0.647,6.156 2.714,8.463 2.067,2.307 5.016,3.625 8.115,3.625 l 53.379,0 c 3.097,0 6.048,-1.318 8.115,-3.625 2.065,-2.307 3.053,-5.385 2.713,-8.463 -3.661,-33.175 -4.157,-66.831 -1.495,-100.106 17.407,-0.964 33.696,-8.121 46.232,-20.417 11.715,-11.489 19.022,-26.339 21,-42.412 15.913,-7.877 26.498,-24.415 26.498,-42.538 0,-23.342 -16.958,-42.798 -39.2,-46.695 -7.81,-27.348 -31.586,-46.41 -59.334,-46.41 -1.338,0 -2.682,0.047 -4.029,0.141 -9.275,-8.797 -21.549,-13.741 -34.507,-13.741 -16.076,0.004 -30.876,7.585 -40.255,20.22 z m 32.91,282.263 c 2.921,-33.191 2.811,-66.692 -0.314,-99.862 6.974,0.441 13.97,1.976 20.675,4.615 2.826,1.111 5.708,2.022 8.631,2.762 -2.477,30.722 -2.368,61.759 0.333,92.485 l -29.325,0 z M 203.049,147.846 c 4.906,-9.489 14.577,-15.385 25.237,-15.385 8.511,0 16.501,3.771 21.924,10.348 2.487,3.018 6.4,4.469 10.256,3.805 2.12,-0.366 4.258,-0.551 6.354,-0.551 19.726,0 36.41,15.343 39.668,36.483 0.83,5.388 5.53,9.307 10.966,9.232 l 0.493,-0.016 c 14.127,0 25.62,11.493 25.62,25.62 0,11.212 -7.49,21.298 -18.217,24.529 -4.519,1.362 -7.648,5.479 -7.749,10.2 -0.573,27.004 -23.015,48.973 -50.026,48.973 -6.323,0 -12.48,-1.161 -18.3,-3.45 -10.586,-4.165 -21.761,-6.264 -32.818,-6.264 -8.172,0 -16.283,1.147 -24.042,3.455 -3.849,1.145 -7.854,1.726 -11.907,1.726 -23.671,0 -42.927,-19.884 -42.927,-44.325 0,-4.38 0.624,-8.722 1.855,-12.905 1.19,-4.043 -0.059,-8.409 -3.206,-11.212 -5.462,-4.864 -8.595,-11.838 -8.595,-19.135 0,-11.949 8.114,-22.2 19.73,-24.93 4.184,-0.983 7.399,-4.335 8.207,-8.556 2.555,-13.336 14.279,-23.015 27.881,-23.015 2.429,0 4.843,0.307 7.174,0.914 4.926,1.279 10.084,-1.02 12.422,-5.541 z"
             id="path7022"
             style="stroke-width:6.15018082;stroke-miterlimit:3.57653379;stroke-dasharray:none" />
          <path
             inkscape:connector-curvature="0"
             d="m 264.285,208.492 c 9.069,6.257 14.271,15.333 14.271,24.897 0,6.017 4.878,10.894 10.894,10.894 6.015,0 10.894,-4.877 10.894,-10.894 0,-16.834 -8.632,-32.445 -23.683,-42.83 -4.953,-3.416 -11.736,-2.171 -15.153,2.78 -3.419,4.951 -2.174,11.736 2.777,15.153 z"
             id="path7024"
             style="stroke-width:6.15018082;stroke-miterlimit:3.57653379;stroke-dasharray:none" />
          <path
             inkscape:connector-curvature="0"
             d="m 234.981,191.995 0.338,0.001 c 0.028,0 0.057,0 0.085,0 5.977,0 10.846,-4.823 10.891,-10.811 0.046,-6.017 -4.794,-10.931 -10.81,-10.976 l -0.503,-0.002 c -6.017,0 -10.894,4.877 -10.894,10.894 0.001,6.016 4.877,10.894 10.893,10.894 z"
             id="path7026"
             style="stroke-width:6.15018082;stroke-miterlimit:3.57653379;stroke-dasharray:none" />
        </g>
      </g>
    </g>
    <path
       inkscape:connector-curvature="0"
       d="m 193.94793,171.44387 c 0.46935,-0.0842 0.94476,-0.21872 1.42366,-0.40381 2.34129,-0.90458 4.65191,-2.96886 6.86782,-6.13572 4.60552,-6.58194 3.65988,-16.7488 3.61741,-17.17839 -0.0245,-0.24843 -0.1567,-0.47357 -0.36133,-0.61624 -0.20465,-0.14267 -0.46169,-0.18891 -0.70331,-0.12577 -0.41632,0.10844 -10.2502,2.73186 -14.85469,9.31229 -2.2182,3.17003 -3.37441,6.04053 -3.43655,8.53155 -0.0504,2.02057 0.62398,3.71935 1.95886,4.96712 -3.86004,4.45188 -8.12382,8.32919 -11.52553,11.16443 -0.40147,0.33464 -0.79725,0.65999 -1.18658,0.97633 0.36236,-1.37518 0.70145,-3.32215 0.77085,-5.90293 3.05486,-0.66872 5.64893,-4.20859 4.87242,-10.92939 -0.73188,-6.33373 -7.07111,-10.66181 -7.34062,-10.84292 -0.34852,-0.23442 -0.81562,-0.18023 -1.10144,0.12725 -0.22111,0.23781 -5.4063,5.89749 -4.67431,12.23129 0.7182,6.21538 3.62291,9.12559 6.52879,9.49217 -0.0423,1.39746 -0.16534,2.55451 -0.31169,3.47526 -0.43871,2.76078 -1.17003,4.05113 -1.18833,4.08287 -5.6e-4,8.4e-4 -4.2e-4,0.002 -0.002,0.002 -0.14716,0.2479 -0.34193,0.46526 -0.57113,0.64024 -3.50644,2.67792 -5.95129,4.25723 -5.98432,4.27846 -0.39645,0.25506 -0.5112,0.78316 -0.25621,1.17972 0.19217,0.29898 0.53968,0.43774 0.86907,0.37867 0.10745,-0.0193 0.21305,-0.0596 0.31058,-0.12231 0.0459,-0.0295 4.65933,-3.00823 10.33808,-7.73939 0.83984,-0.69966 1.73177,-1.46254 2.65678,-2.28063 0.67658,0.36013 3.00589,1.41445 7.41787,1.64006 0.58503,2.78244 3.75742,5.18754 9.847,4.61955 0.27608,-0.0257 0.54782,-0.0632 0.81588,-0.1112 5.33312,-0.95655 9.01737,-6.1053 9.17916,-6.33471 0.24187,-0.34325 0.19821,-0.8114 -0.10299,-1.10397 -0.21141,-0.20543 -5.24447,-5.02459 -11.01462,-4.48635 -2.75179,0.25645 -5.03631,1.04524 -6.60697,2.28024 -1.20975,0.9513 -1.94877,2.13569 -2.15634,3.41658 -3.11287,-0.17648 -5.05432,-0.7834 -5.99535,-1.16455 2.54211,-2.32323 5.25814,-5.02038 7.80244,-7.96618 1.26347,0.68789 2.65161,0.90744 4.09701,0.64818 z m -21.68936,1.3021 c -1.1853,-1.44092 -1.97649,-3.62726 -2.28805,-6.32285 -0.51652,-4.47029 2.51789,-8.76684 3.73801,-10.29066 1.53607,1.20598 5.46987,4.69705 5.98645,9.16702 0.31145,2.69552 0.0397,5.00476 -0.78573,6.67797 -0.58208,1.1798 -1.39793,1.95966 -2.38577,2.28977 -0.0488,-2.35407 -0.31718,-5.14802 -0.94393,-8.41937 -0.0889,-0.46299 -0.53145,-0.76836 -0.99903,-0.67777 -0.46299,0.0889 -0.76644,0.53601 -0.67777,0.99903 0.62156,3.24401 0.86952,5.97714 0.91029,8.22104 -0.92782,-0.16815 -1.79729,-0.72376 -2.55447,-1.64418 z m 24.83673,6.57442 c -2.86153,0.48316 -5.29103,0.65985 -7.32196,0.65588 0.18697,-0.77684 0.68678,-1.49886 1.48209,-2.12421 1.31188,-1.03157 3.28653,-1.69631 5.71011,-1.92246 3.95457,-0.36893 7.69693,2.35106 9.09202,3.50773 -1.15756,1.39527 -4.33214,4.76073 -8.28636,5.12878 -2.42381,0.22606 -4.48724,-0.062 -5.96726,-0.83321 -0.99032,-0.51599 -1.64877,-1.21424 -1.94134,-2.04392 2.10706,-0.004 4.60091,-0.19264 7.51681,-0.68502 0.003,-5.1e-4 0.007,-9.6e-4 0.009,-0.002 0.45996,-0.0825 0.76881,-0.52042 0.69088,-0.98231 -0.0786,-0.46495 -0.51894,-0.77816 -0.98379,-0.69969 z m -8.88769,-14.44998 c 0.0529,-2.1193 1.13473,-4.74575 3.1286,-7.59529 3.42375,-4.89285 10.30857,-7.50004 12.88428,-8.33607 0.10747,2.71077 0.0443,10.09304 -3.38001,14.9865 -1.98957,2.84335 -4.09348,4.75282 -6.0843,5.522 -1.35675,0.52423 -2.62219,0.52513 -3.77403,0.007 1.58105,-1.92006 3.07205,-3.93261 4.38284,-6.00664 0.26211,-0.41473 0.12274,-0.96885 -0.31555,-1.20695 -0.40027,-0.21736 -0.90129,-0.0629 -1.14485,0.32217 -1.29429,2.04493 -2.77124,4.0311 -4.33857,5.92635 -0.93804,-0.91054 -1.39563,-2.12323 -1.35841,-3.61833 z"
       id="path8067" />
    <g
       transform="matrix(0.10173473,0,0,0.10173473,85.059511,142.91527)"
       id="g8804">
      <g
         id="g8806">
        <path
           inkscape:connector-curvature="0"
           d="m 255.989,36.652 c -120.942,0 -219.337,98.395 -219.337,219.337 0,120.942 98.395,219.337 219.337,219.337 120.942,0 219.337,-98.395 219.337,-219.337 0,-120.942 -98.395,-219.337 -219.337,-219.337 z m 191.907,155.77 -13.486,0 c -4.157,0 -8.32,0.983 -12.037,2.841 l -4.945,2.473 c -3.118,1.558 -6.854,1.325 -9.755,-0.607 l -18.64,-12.427 c -1.411,-0.94 -3.07,-1.443 -4.765,-1.443 l -2.275,0 6.362,-9.544 c 0.32,-0.479 0.853,-0.764 1.429,-0.764 l 13.381,0 0,3.734 c 0,4.744 3.845,8.59 8.59,8.59 4.23,0 7.738,-3.06 8.451,-7.085 l 3.133,1.567 c 3.086,1.543 6.539,2.358 9.988,2.358 l 10.839,0 c 1.337,3.39 2.575,6.83 3.73,10.307 z m -64.2,-79.244 c 0,-0.15 0.061,-0.298 0.167,-0.405 l 6.479,-6.479 c 0.216,-0.216 0.418,-0.442 0.607,-0.676 3.787,3.403 7.448,6.942 10.969,10.617 l -5.399,5.399 c -3.355,3.355 -3.355,8.794 0,12.148 1.677,1.677 3.876,2.516 6.074,2.516 2.198,0 4.397,-0.838 6.074,-2.516 l 4.618,-4.618 c 8.912,11.031 16.691,23.011 23.155,35.769 l -3.114,0 c -0.796,0 -1.593,-0.189 -2.306,-0.544 l -13.248,-6.625 c -2.61,-1.305 -5.532,-1.994 -8.451,-1.994 l -19.539,0 c -6.333,0 -12.212,3.146 -15.725,8.415 l -12.712,19.074 -8.002,0 c -3.474,0 -6.299,-2.826 -6.299,-6.299 l 0,-15.158 c 0,-0.246 0.157,-0.465 0.392,-0.543 l 16.761,-5.587 c 4.178,-1.393 8.032,-3.775 11.147,-6.889 5.387,-5.387 8.352,-12.547 8.352,-20.164 l 0,-15.441 z m -262.669,-7.56 c 0.189,0.233 0.389,0.458 0.607,0.675 l 9.163,9.163 c 1.61,1.612 3.796,2.516 6.074,2.516 2.278,0 4.464,-0.905 6.074,-2.516 l 12.957,-12.959 c 1.838,-1.838 4.284,-2.851 6.885,-2.851 l 11.308,0 0,0.573 c 0,2.977 1.542,5.742 4.074,7.307 2.532,1.566 5.695,1.708 8.358,0.376 l 14.993,-7.498 c 0.993,-0.496 2.104,-0.758 3.215,-0.758 l 30.645,0 c -3.351,2.185 -5.68,5.67 -6.399,9.819 -1.011,5.84 1.424,11.511 6.356,14.799 l 11.806,7.871 c 0.159,0.107 0.254,0.284 0.254,0.476 l 0,4.26 c 0,0.316 -0.257,0.573 -0.573,0.573 l -3.945,0 c -5.66,0 -10.981,2.204 -14.984,6.206 l -57.766,57.766 c -0.107,0.107 -0.254,0.167 -0.405,0.167 l -14.528,0 c -14.842,0 -26.916,12.074 -26.916,26.916 l 0,4.183 -9.523,-1.905 c -2.27,-0.454 -4.164,-1.902 -5.2,-3.971 l -5.656,-11.31 c -1.455,-2.911 -4.429,-4.75 -7.683,-4.75 l -5.117,0 c -4.197,0 -7.909,-2.676 -9.235,-6.657 L 73.905,168.206 c 11.538,-23.835 27.627,-45.071 47.122,-62.588 z m 134.962,352.527 c -111.469,0 -202.157,-90.688 -202.157,-202.156 0,-22.079 3.57,-43.337 10.142,-63.242 l 5.592,16.776 c 3.649,10.949 13.818,18.324 25.342,18.404 l 3.281,6.563 c 3.422,6.846 9.69,11.632 17.196,13.135 l 32.759,6.551 c 1.842,0.368 3.517,1.265 4.845,2.593 2.665,2.666 5.797,4.698 9.21,6.02 l -5.99,17.972 c -0.292,0.876 -0.441,1.792 -0.441,2.717 l 0,18.326 c 0,8.426 4.025,16.477 10.766,21.533 l 21.991,16.493 c 2.438,1.828 3.894,4.74 3.894,7.787 l 0,49.429 c 0,5.333 1.563,10.496 4.521,14.931 l 13.208,19.813 c 2.875,4.311 7.683,6.885 12.865,6.885 l 3.194,0 c 5.999,0 10.881,-4.882 10.881,-10.881 l 0,-15.709 c 0,-3.824 1.489,-7.42 4.193,-10.124 l 16.956,-16.956 c 3.44,-3.44 6.07,-7.697 7.61,-12.313 l 5.365,-16.094 c 0.078,-0.235 0.297,-0.392 0.543,-0.392 l 4.568,0 c 8.162,0 15.245,-5.53 17.223,-13.448 l 6.17,-24.679 c 1.503,-6.014 -0.286,-12.474 -4.671,-16.857 l -11.974,-11.974 c -3.352,-3.352 -7.811,-5.2 -12.553,-5.2 l -10.973,0 -31.452,-31.452 c -3.352,-3.352 -7.811,-5.2 -12.553,-5.2 l -41.82,0 c -0.134,-0.003 -0.267,-0.003 -0.401,0 l -1.476,0 c -2.532,0 -4.915,-0.986 -6.705,-2.778 -3.734,-3.735 -8.446,-6.256 -13.625,-7.291 l -6.053,-1.211 0,-7.616 c 0,-5.368 4.367,-9.736 9.736,-9.736 l 9.736,0 0,0.573 c 0,4.744 3.846,8.59 8.59,8.59 4.744,0 8.59,-3.846 8.59,-8.59 l 0,-5.621 c 0.054,-0.053 0.113,-0.099 0.167,-0.151 l 57.766,-57.766 c 0.757,-0.757 1.764,-1.174 2.835,-1.174 l 3.945,0 c 9.789,0 17.753,-7.964 17.753,-17.753 l 0,-4.26 c 0,-5.95 -2.956,-11.472 -7.905,-14.771 l -7.251,-4.835 13.916,-3.48 c 6.125,-1.53 10.403,-7.008 10.403,-13.327 0,-7.572 -6.161,-13.733 -13.733,-13.733 l -55.273,0 c -3.764,0 -7.533,0.889 -10.899,2.573 l -5.676,2.838 c -2.625,-3.295 -6.671,-5.411 -11.202,-5.411 l -14.172,0 c -7.189,0 -13.949,2.799 -19.033,7.884 l -6.884,6.884 -2.568,-2.567 c 33.878,-25.617 76.036,-40.835 121.686,-40.835 45.65,0 87.808,15.217 121.684,40.834 l -5.958,5.958 c -3.354,3.354 -5.2,7.811 -5.2,12.553 l 0,15.44 c 0,3.028 -1.18,5.875 -3.32,8.016 -1.238,1.238 -2.769,2.184 -4.431,2.739 l -16.761,5.587 c -7.26,2.42 -12.14,9.188 -12.14,16.843 l 0,15.157 c 0,4.328 1.198,8.374 3.249,11.859 -3.485,2.346 -6.541,5.366 -8.946,8.976 l -8.108,12.16 c -2.958,4.436 -4.521,9.599 -4.521,14.931 l 0,16.391 c 0,5.332 1.563,10.495 4.521,14.931 l 9.808,14.711 c 5.004,7.506 13.376,11.986 22.395,11.986 l 22.798,0 c 4.198,0 7.909,2.674 9.235,6.657 l 2.048,6.141 c 1.657,4.972 2.498,10.151 2.498,15.394 l 0,6.485 c 0,8.567 1.193,17.089 3.548,25.33 l 14.73,51.559 c -36.889,39.173 -89.197,63.675 -147.127,63.675 z m -57.154,-132.06 -21.991,-16.493 c -2.438,-1.829 -3.894,-4.741 -3.894,-7.788 l 0,-16.932 6.765,-20.292 35.827,0 c 0.151,0 0.299,0.061 0.405,0.167 l 33.968,33.968 c 1.61,1.612 3.796,2.516 6.074,2.516 l 14.53,0 c 0.151,0 0.299,0.061 0.405,0.167 l 11.974,11.974 c 0.142,0.142 0.199,0.351 0.151,0.544 l -6.17,24.678 c -0.064,0.255 -0.292,0.433 -0.555,0.433 l -4.568,0 c -7.653,0 -14.421,4.878 -16.843,12.14 l -5.365,16.094 c -0.699,2.098 -1.896,4.033 -3.459,5.596 l -16.956,16.956 c -5.949,5.949 -9.225,13.859 -9.225,22.272 l 0,3.373 -8.674,-13.01 c -1.07,-1.604 -1.634,-3.472 -1.634,-5.4 l 0,-49.428 c 0.001,-8.43 -4.023,-16.481 -10.765,-21.535 z m 206.074,12.107 c -1.915,-6.705 -2.887,-13.64 -2.887,-20.611 l 0,-6.485 c 0,-7.092 -1.137,-14.099 -3.379,-20.827 l -2.048,-6.141 c -3.669,-11.007 -13.93,-18.404 -25.534,-18.404 l -22.798,0 c -3.262,0 -6.29,-1.621 -8.1,-4.335 l -9.808,-14.712 c -1.07,-1.605 -1.636,-3.472 -1.636,-5.4 l 0,-16.391 c 0,-1.929 0.566,-3.796 1.636,-5.4 l 8.108,-12.161 c 2.874,-4.311 7.683,-6.885 12.865,-6.885 l 30.341,0 16.475,10.983 c 8.016,5.344 18.351,5.988 26.968,1.679 l 4.945,-2.473 c 1.345,-0.672 2.85,-1.027 4.354,-1.027 l 18.357,0 c 3.512,14.901 5.379,30.43 5.379,46.387 0.001,46.132 -15.543,88.695 -41.65,122.752 l -11.588,-40.549 z"
           id="path8808" />
      </g>
    </g>
    <g
       transform="matrix(0.10173473,0,0,0.10173473,85.059511,142.91527)"
       id="g8846">
      <g
         id="g8848">
        <path
           inkscape:connector-curvature="0"
           d="m 217.857,114.703 c -2.121,-4.244 -7.281,-5.965 -11.525,-3.842 l -18.326,9.163 c -4.244,2.121 -5.964,7.281 -3.842,11.525 1.505,3.01 4.538,4.75 7.69,4.75 1.291,0 2.601,-0.292 3.835,-0.908 l 18.326,-9.163 c 4.244,-2.121 5.964,-7.281 3.842,-11.525 z"
           id="path8850" />
      </g>
    </g>
    <g
       transform="matrix(0.10173473,0,0,0.10173473,85.059511,142.91527)"
       id="g8852">
      <g
         id="g8854">
        <path
           inkscape:connector-curvature="0"
           d="m 347.618,100.792 c -4.744,0 -8.59,3.846 -8.59,8.59 l 0,9.163 c 0,4.744 3.845,8.59 8.59,8.59 4.744,0 8.59,-3.846 8.59,-8.59 l 0,-9.163 c 0,-4.744 -3.846,-8.59 -8.59,-8.59 z"
           id="path8856" />
      </g>
    </g>
    <g
       transform="matrix(0.23646761,0,0,0.23646761,161.21915,18.533592)"
       id="g9418">
      <path
         inkscape:connector-curvature="0"
         style="fill:#010002"
         d="m 194.849,53.293 c -0.501,-0.784 -1.278,-1.335 -2.187,-1.528 -1.854,-0.419 -3.844,0.866 -4.237,2.613 -0.336,1.285 -1.41,4.753 -3.912,9.144 l -1.16,2.047 -53.561,-53.554 2.058,-1.16 c 5.164,-2.906 9.008,-3.804 9.18,-3.84 1.89,-0.444 3.074,-2.344 2.645,-4.237 -0.401,-1.779 -2.319,-3.114 -4.266,-2.663 C 138.897,0.24 88.138,13.808 97.418,87.496 L 97.694,89.679 95.5,89.5 c -3.962,-0.301 -7.916,-0.447 -11.757,-0.447 -59.574,0 -82.31,37.138 -83.244,38.72 -0.83,1.385 -0.605,3.171 0.523,4.277 0.179,0.204 0.419,0.376 0.759,0.601 1.367,0.812 3.937,0.15 4.796,-1.263 0.419,-0.684 2.727,-4.327 7.347,-9.008 l 1.267,-1.281 59.137,59.151 -1.288,1.27 c -4.699,4.617 -8.296,6.9 -8.965,7.312 -1.689,1.009 -2.258,3.207 -1.267,4.878 0.15,0.247 0.329,0.472 0.555,0.698 0.612,0.598 1.578,0.97 2.57,0.97 0.648,0 1.242,-0.161 1.714,-0.437 1.782,-1.059 43.605,-26.63 38.265,-95.029 l -0.168,-2.197 2.183,0.276 c 6.12,0.787 12.068,1.174 17.694,1.174 l 0,0 c 58.987,0 69.584,-42.728 69.691,-43.172 0.217,-0.928 0.045,-1.891 -0.463,-2.7 z M 93.478,148.426 c -2.827,8.145 -6.66,15.683 -11.313,22.303 l -3.643,4.252 -58.085,-58.289 4.137,-3.332 c 6.71,-4.742 14.258,-8.582 22.504,-11.442 l 3.4,-1.507 44.199,44.46 -1.199,3.555 z m 4.008,-15.597 -0.598,3.382 L 59.221,98.54 62.61,97.942 c 10.561,-1.882 22.447,-2.308 34.454,-1.21 l 1.496,0.15 0.132,1.485 c 1.106,12.109 0.698,23.701 -1.206,34.462 z M 136.12,91.58 c -9.054,0.927 -19.111,0.626 -29.837,-0.898 l -1.331,-0.2 -0.193,-1.324 c -1.535,-10.78 -1.861,-20.847 -0.963,-29.916 l 0.626,-6.163 37.943,38.079 -6.245,0.422 z m 39.679,-16.868 c -6.281,6.088 -14.101,10.654 -23.091,13.535 l -2.358,0.397 -43.984,-43.623 0.691,-2.219 c 2.895,-9.201 7.44,-17.017 13.528,-23.273 l 2.459,-2.602 55.39,54.577 -2.635,3.208 z"
         id="path9420" />
    </g>
    <g
       transform="matrix(0.0786332,0,0,0.0786332,202.84327,83.246422)"
       id="g9551">
      <g
         id="g9553">
        <path
           inkscape:connector-curvature="0"
           d="m 499.987,441.994 -142.399,-142.4 c -3.984,-3.983 -10.44,-3.983 -14.425,0 l -14.578,14.578 -21.924,-21.924 c 27.654,-31.039 44.488,-71.92 44.488,-116.664 C 351.149,78.772 272.386,0.009 175.574,0.009 78.762,0.009 0,78.772 0,175.585 0,272.398 78.763,351.16 175.575,351.16 c 44.744,0 85.624,-16.833 116.664,-44.487 l 21.924,21.924 -14.578,14.578 c -3.983,3.983 -3.983,10.441 0,14.425 l 142.398,142.398 c 0,0 0,0 10e-4,0 7.996,7.995 18.498,11.993 29.001,11.993 10.503,0 21.006,-3.998 29.001,-11.993 7.748,-7.746 12.014,-18.046 12.014,-29.001 0,-10.958 -4.266,-21.257 -12.013,-29.003 z M 175.575,330.761 C 90.01,330.761 20.398,261.149 20.398,175.585 20.398,90.02 90.01,20.408 175.575,20.408 c 85.565,0 155.177,69.612 155.177,155.177 0,85.565 -69.612,155.176 -155.177,155.176 z m 309.988,154.812 c -8.037,8.038 -21.115,8.039 -29.156,0 l 0.001,0 -135.187,-135.187 29.155,-29.155 135.187,135.186 c 3.893,3.894 6.038,9.071 6.038,14.578 10e-4,5.507 -2.144,10.684 -6.038,14.578 z"
           id="path9555" />
      </g>
    </g>
    <g
       transform="matrix(0.0786332,0,0,0.0786332,202.84327,83.246422)"
       id="g9557">
      <g
         id="g9559">
        <path
           inkscape:connector-curvature="0"
           d="m 58.309,182.024 c -0.115,-2.13 -0.173,-4.297 -0.173,-6.44 0,-5.633 -4.566,-10.199 -10.199,-10.199 -5.633,0 -10.199,4.566 -10.199,10.199 0,2.508 0.068,5.046 0.203,7.54 0.294,5.437 4.795,9.649 10.176,9.649 0.186,0 0.372,-0.005 0.559,-0.015 5.624,-0.302 9.937,-5.108 9.633,-10.734 z"
           id="path9561" />
      </g>
    </g>
    <g
       transform="matrix(0.0786332,0,0,0.0786332,202.84327,83.246422)"
       id="g9563">
      <g
         id="g9565">
        <path
           inkscape:connector-curvature="0"
           d="m 175.575,293.024 c -44.357,0 -84.459,-24.559 -104.654,-64.091 -2.563,-5.016 -8.704,-7.006 -13.723,-4.443 -5.016,2.563 -7.006,8.706 -4.443,13.723 23.699,46.391 70.761,75.21 122.819,75.21 5.633,0 10.199,-4.566 10.199,-10.199 0,-5.633 -4.565,-10.2 -10.198,-10.2 z"
           id="path9567" />
      </g>
    </g>
  </g>
  <g
     inkscape:label="icon_komplett"
     inkscape:groupmode="layer"
     id="layer1"
     style="display:none">
    <path
       style="opacity:1;fill:none;fill-rule:evenodd;stroke:#000000;stroke-width:1.32062113;stroke-linecap:butt;stroke-linejoin:miter;stroke-miterlimit:3.55300784;stroke-dasharray:none;stroke-opacity:1"
       d="m 147.0325,88.904608 16.90734,6.139608 0.95962,6.139554 -4.3411,6.1395 -13.52586,6.13952 -13.52587,-6.13952 -4.3411,-6.1395 0.95962,-6.139554 z"
       id="path3599"
       inkscape:connector-curvature="0"
       sodipodi:nodetypes="ccccccccc" />
    <path
       style="opacity:1;fill:none;fill-rule:evenodd;stroke:#000000;stroke-width:1.32062113;stroke-linecap:butt;stroke-linejoin:miter;stroke-miterlimit:3.55300784;stroke-dasharray:none;stroke-opacity:1"
       d="m 163.93984,95.044216 6.76292,-3.069809 3.38147,-12.279194 -16.90734,6.139599 -0.86365,6.40096 z"
       id="path3601"
       inkscape:connector-curvature="0"
       sodipodi:nodetypes="cccccc" />
    <path
       style="opacity:1;fill:none;fill-rule:evenodd;stroke:#000000;stroke-width:1.32062113;stroke-linecap:butt;stroke-linejoin:miter;stroke-miterlimit:3.55300784;stroke-dasharray:none;stroke-opacity:1"
       d="m 130.12515,95.044216 -6.76292,-3.069809 -3.38148,-12.279194 16.90735,6.139599 1.43942,6.221429 z"
       id="path3603"
       inkscape:connector-curvature="0"
       sodipodi:nodetypes="cccccc" />
    <path
       style="opacity:1;fill:none;fill-rule:evenodd;stroke:#000000;stroke-width:1.32062113;stroke-linecap:butt;stroke-linejoin:miter;stroke-miterlimit:3.55300784;stroke-dasharray:none;stroke-opacity:1"
       d="m 147.0325,88.904608 9.97064,6.12513 -9.97064,17.339732 -9.77788,-17.465076 z"
       id="path3609"
       inkscape:connector-curvature="0"
       sodipodi:nodetypes="ccccc" />
    <path
       style="opacity:1;fill:none;fill-rule:evenodd;stroke:#000000;stroke-width:1.32062113;stroke-linecap:butt;stroke-linejoin:miter;stroke-miterlimit:3.55300784;stroke-dasharray:none;stroke-opacity:1"
       d="m 157.17689,95.044216 3.38146,12.279054 z"
       id="path3611"
       inkscape:connector-curvature="0" />
    <path
       style="opacity:1;fill:none;fill-rule:evenodd;stroke:#000000;stroke-width:1.32062113;stroke-linecap:butt;stroke-linejoin:miter;stroke-miterlimit:3.55300784;stroke-dasharray:none;stroke-opacity:1"
       d="m 136.8881,95.044216 -3.38147,12.279054 z"
       id="path3617"
       inkscape:connector-curvature="0" />
    <path
       style="opacity:1;fill:none;fill-rule:evenodd;stroke:#000000;stroke-width:1.32062113;stroke-linecap:butt;stroke-linejoin:miter;stroke-miterlimit:3.55300784;stroke-dasharray:none;stroke-opacity:1"
       d="m 136.8881,95.044216 20.28879,0 z"
       id="path3619"
       inkscape:connector-curvature="0" />
    <path
       style="opacity:1;fill:none;fill-rule:evenodd;stroke:#000000;stroke-width:1.32062113;stroke-linecap:butt;stroke-linejoin:miter;stroke-miterlimit:3.55300784;stroke-dasharray:none;stroke-opacity:1"
       d="m 123.36223,91.974407 2.68349,-9.604594 12.19497,9.604594 -12.25551,-9.877791 z"
       id="path3627"
       inkscape:connector-curvature="0"
       sodipodi:nodetypes="ccccc" />
    <path
       style="opacity:1;fill:none;fill-rule:evenodd;stroke:#000000;stroke-width:1.32062113;stroke-linecap:butt;stroke-linejoin:miter;stroke-miterlimit:3.55300784;stroke-dasharray:none;stroke-opacity:1"
       d="m 170.70276,91.974407 -2.15289,-9.741458 -12.20194,9.987864 12.20194,-10.06977 z"
       id="path3631"
       inkscape:connector-curvature="0"
       sodipodi:nodetypes="ccccc" />
    <path
       style="opacity:1;fill:none;fill-rule:evenodd;stroke:#000000;stroke-width:1.32062113;stroke-linecap:butt;stroke-linejoin:miter;stroke-miterlimit:3.55300784;stroke-dasharray:none;stroke-opacity:1"
       d="m 148.86874,112.5768 -0.78333,-0.93643 -2.08444,0 -0.76191,0.97529"
       id="path3633"
       inkscape:connector-curvature="0"
       sodipodi:nodetypes="cccc" />
    <path
       style="opacity:1;fill:#000000;fill-opacity:1;stroke:#000000;stroke-width:1.32062113;stroke-linecap:square;stroke-linejoin:miter;stroke-miterlimit:3.55300784;stroke-dasharray:none;stroke-dashoffset:0;stroke-opacity:1"
       d="m 154.69716,106.09536 a 1.0144396,0.61395203 0 0 1 -1.01444,0.61395 1.0144396,0.61395203 0 0 1 -1.01445,-0.61395 1.0144396,0.61395203 0 0 1 1.01445,-0.61394 1.0144396,0.61395203 0 0 1 1.01444,0.61394 z"
       id="path4465"
       inkscape:connector-curvature="0" />
    <path
       style="opacity:1;fill:#000000;fill-opacity:1;stroke:#000000;stroke-width:1.32062113;stroke-linecap:square;stroke-linejoin:miter;stroke-miterlimit:3.55300784;stroke-dasharray:none;stroke-dashoffset:0;stroke-opacity:1"
       d="m 141.47319,106.2843 a 1.0144396,0.61395207 0 0 1 -1.01443,0.61395 1.0144396,0.61395207 0 0 1 -1.01445,-0.61395 1.0144396,0.61395207 0 0 1 1.01445,-0.61396 1.0144396,0.61395207 0 0 1 1.01443,0.61396 z"
       id="path4465-3"
       inkscape:connector-curvature="0" />
    <path
       style="fill:none;fill-rule:evenodd;stroke:#000000;stroke-width:1.32062113;stroke-linecap:butt;stroke-linejoin:miter;stroke-miterlimit:3.55300784;stroke-dasharray:none;stroke-opacity:1"
       d="m 158.14903,108.42888 14.12731,12.11625 -1.72352,10.51749 -10.2277,4.19596 -17.03711,-0.0994 -4.67901,-5.84392 2.64807,-3.12202 -3.28396,-16.78574 9.05388,4.07094 z"
       id="path4216"
       inkscape:connector-curvature="0"
       sodipodi:nodetypes="cccccccccc" />
    <path
       style="fill:none;fill-rule:evenodd;stroke:#000000;stroke-width:1.32062113;stroke-linecap:butt;stroke-linejoin:miter;stroke-miterlimit:3.55300784;stroke-dasharray:none;stroke-opacity:1"
       d="M 141.27255,126.12707 172.138,120.48624"
       id="path4218"
       inkscape:connector-curvature="0"
       sodipodi:nodetypes="cc" />
    <path
       style="fill:none;fill-rule:evenodd;stroke:#000000;stroke-width:1.32062113;stroke-linecap:butt;stroke-linejoin:miter;stroke-miterlimit:3.55300784;stroke-dasharray:none;stroke-opacity:1"
       d="m 151.81698,111.22517 20.46247,9.37719"
       id="path4222"
       inkscape:connector-curvature="0"
       sodipodi:nodetypes="cc" />
    <path
       style="fill:none;fill-rule:evenodd;stroke:#000000;stroke-width:1.32062113;stroke-linecap:butt;stroke-linejoin:miter;stroke-miterlimit:3.55300784;stroke-dasharray:none;stroke-opacity:1"
       d="m 146.15462,125.299 3.37961,9.89867"
       id="path4224"
       inkscape:connector-curvature="0"
       sodipodi:nodetypes="cc" />
    <path
       style="fill:none;fill-rule:evenodd;stroke:#000000;stroke-width:1.32062113;stroke-linecap:butt;stroke-linejoin:miter;stroke-miterlimit:3.55300784;stroke-dasharray:none;stroke-opacity:1"
       d="m 151.80124,111.2746 -10.52833,14.79955 1.61799,-14.64272"
       id="path4821"
       inkscape:connector-curvature="0"
       sodipodi:nodetypes="ccc" />
    <path
       style="fill:none;fill-rule:evenodd;stroke:#000000;stroke-width:1.32062113;stroke-linecap:butt;stroke-linejoin:miter;stroke-miterlimit:3.55300784;stroke-dasharray:none;stroke-opacity:1"
       d="m 136.88862,95.114279 -7.43882,6.166501"
       id="path4823"
       inkscape:connector-curvature="0" />
    <path
       style="fill:none;fill-rule:evenodd;stroke:#000000;stroke-width:1.32062113;stroke-linecap:butt;stroke-linejoin:miter;stroke-miterlimit:4;stroke-dasharray:none;stroke-opacity:1"
       d="m 157.38696,95.279831 7.59324,5.473639"
       id="path5376"
       inkscape:connector-curvature="0"
       sodipodi:nodetypes="cc" />
  </g>
</svg>
